<?xml version="1.0" encoding="UTF-8"?>
<svg id="Layer_7" data-name="Layer 7" xmlns="http://www.w3.org/2000/svg" viewBox="0 0 725.76 967.68">
  <defs>
    <style>
      .cls-1, .cls-2, .cls-3, .cls-4, .cls-5, .cls-6, .cls-7, .cls-8, .cls-9, .cls-10, .cls-11, .cls-12, .cls-13, .cls-14, .cls-15, .cls-16, .cls-17, .cls-18 {
        fill: none;
      }

      .cls-1, .cls-2, .cls-3, .cls-19, .cls-6, .cls-7, .cls-9, .cls-10, .cls-11, .cls-12, .cls-14, .cls-15, .cls-20, .cls-16, .cls-17, .cls-21, .cls-22 {
        stroke-linecap: round;
      }

      .cls-1, .cls-2, .cls-3, .cls-19, .cls-9, .cls-10, .cls-11, .cls-12, .cls-14, .cls-15, .cls-20, .cls-16, .cls-21, .cls-22 {
        stroke-linejoin: round;
      }

      .cls-1, .cls-2, .cls-4, .cls-5, .cls-19, .cls-6, .cls-7, .cls-8, .cls-9, .cls-10, .cls-11, .cls-13, .cls-14, .cls-15, .cls-23, .cls-20, .cls-16, .cls-17, .cls-22, .cls-18 {
        stroke: #231f20;
      }

      .cls-1, .cls-5, .cls-23, .cls-20 {
        stroke-width: .38px;
      }

      .cls-2, .cls-3, .cls-8, .cls-17, .cls-21, .cls-22 {
        stroke-width: .75px;
      }

      .cls-3, .cls-12, .cls-21 {
        stroke: #fff;
      }

      .cls-4 {
        stroke-width: 1.25px;
      }

      .cls-4, .cls-5, .cls-6, .cls-7, .cls-8, .cls-13, .cls-23, .cls-17, .cls-18 {
        stroke-miterlimit: 10;
      }

      .cls-19, .cls-7, .cls-11, .cls-12, .cls-18 {
        stroke-width: .5px;
      }

      .cls-19, .cls-24, .cls-23, .cls-20 {
        fill: #231f20;
      }

      .cls-6, .cls-10 {
        stroke-width: .25px;
      }

      .cls-9 {
        stroke-width: 2px;
      }

      .cls-14 {
        stroke-width: 1.75px;
      }

      .cls-15 {
        stroke-width: .34px;
      }

      .cls-24 {
        font-family: BodoniSvtyTwoSCITCTT-Book, 'Bodoni 72 Smallcaps';
        font-size: 4.77px;
      }

      .cls-16 {
        stroke-width: 1.5px;
      }

      .cls-21, .cls-22 {
        fill: #fff;
      }
    </style>
  </defs>
  <g>
    <path class="cls-15" d="m344.68,362.91c-2.52.08-4.91,1.7-5.6,4.34"/>
    <path class="cls-15" d="m331.9,374.8c3.35-1.11,4.09-4.6,6.52-6.84,2.57-2.37,5.79.89,8.05-2.7"/>
    <path class="cls-15" d="m331.54,376.89c4.72-2.56,4.86-4.96,6-5.23,2.43-.57,4.23-3.75,4.23-3.75,0,4.06-1.81,4.38-4.23,3.75"/>
    <path class="cls-15" d="m331.82,374.93c2.33-.06,4.45.85,4.45.85,3.32-.29,15.41.03,11.48,13.16-.91-3.44-1.81-3.51-3.63-4.1s-8.46-1.22-8.76-9.34"/>
    <path class="cls-15" d="m336.26,375.81c6.04,1.88,6.42,1.61,10.31,10.34"/>
    <path class="cls-14" d="m403.23,488.64l-60.92.02s-4.84-5.84,0-10.09c0,0,1.54-.17,60.48-.17"/>
    <path class="cls-9" d="m340.33,490.5h62.87c6.63,3.72,1.35,16.01-1.51,15.45s-61.36,0-61.36,0"/>
    <path class="cls-16" d="m404.55,507.48h-61.8c-4.18,3.72-1.54,13.49,0,14.42s61.36,0,61.36,0"/>
    <path class="cls-11" d="m342.09,479.56c-1.76,1.63-.9,7.02.44,7.55,1.82.72,61.54.54,59.38,0-4.4-2.2-1.43-7.55-1.43-7.55h-58.39Z"/>
    <path class="cls-11" d="m342.97,491.66c1.76,4.65,0,11.17-1.77,13.03l59.38,1.19c4.41-2.58,4.06-11.89,2.04-14.22h-59.65Z"/>
    <path class="cls-11" d="m402.79,522.14c-8.8-1.86-7.92-13.26,0-14.54l-59.38.58c-3.52,3.72,0,13.96,0,13.96h59.38Z"/>
    <path class="cls-11" d="m348.02,514.46c-.44-2.33,12.32-.47,12.32-.47"/>
    <line class="cls-11" x1="377.05" y1="515.86" x2="391.09" y2="515.86"/>
    <path class="cls-11" d="m377.05,512.69c2.64-1.02,9.8,0,9.8,0"/>
    <path class="cls-11" d="m376.18,519.58c1.32-.93,17.54,0,17.54,0"/>
    <line class="cls-11" x1="364.3" y1="517.25" x2="391.79" y2="517.25"/>
    <line class="cls-11" x1="369.93" y1="514.46" x2="391.79" y2="514.46"/>
    <path class="cls-11" d="m379.32,509.14c1.26-.73,10.59,0,10.59,0"/>
    <path class="cls-11" d="m381.74,510.04c1.26-.73,10.59,0,10.59,0"/>
    <path class="cls-20" d="m362.1,452.58c3.28,5.12,1.38,23.16-2.39,24.61h-11.7c-5.34-2.62-7.69-19.8-5.27-24.61,1.87,3.45,18.06,2.63,19.35,0Z"/>
    <path class="cls-23" d="m342.77,467.93c0,1.86-13.64,5.58-7.48-2.79,0,0-5.72-12.1,6.57-4.16l.02,2.3c-8.33-5.65-3.52,1.86-3.52,1.86-5.28,6.05,3.96,1.4,3.96,1.4l.44,1.4Z"/>
    <path class="cls-5" d="m362.1,452.58c-.44-1.86-18.47-2.33-19.35,0"/>
    <polyline class="cls-2" points="362.32 473.05 399.05 472.58 395.53 477.7 362.1 477.7 361.13 475.75"/>
    <path class="cls-11" d="m383.21,449.78c.23-7.61-10.14-6.49-8.8,0-.88.47-2.15,1.22-2.15,1.22-2.69-1.54-5.24-.58-5.76,2.97-.13.85-.49,1.07-.88,1.4-.69.58-2.31.65-2.31.65"/>
    <path class="cls-11" d="m395.53,472.58c1.76-2.79-.88-13.03-3.08-15.82"/>
    <path class="cls-11" d="m363.42,461.88c.88.93,2.64,0,2.64,0,1.06,3.72,6.28,3.26,7.32,0,1.04-3.26-1.21-4.21,1.48-6.05,2.68-1.83,1.34-3.89.95-4.37-1.77-2.18-5.36-1.41-5,1.58.2,1.65-.57,2.19-1.67,2.33-1.28.16-2.57,1.26-3.08,2.79s-.22,3.49,0,3.72"/>
    <path class="cls-11" d="m374.86,455.83c2.74.63,1.76,4.19,1.32,5.12-1.46,3.1-1.33,6.32,2.02,6.36,1.51.02,6.95.06,4.13-5.9-.88-1.86-1.18-.63-.88-6.05.28-5.03-1.69-6.23-5.72-4.19"/>
    <path class="cls-11" d="m381.01,451.18c.98-2,5.28-1.4,5.72,1.86.44,3.26.44,3.28,2.64,3.26,2.91-.04,4.4,3.72,2.64,6.05-1.76,2.33-5.08,1.85-5.28-1.4-.14-2.25-.56-2.82-2.64-2.79-2.37.04-2.64-2.33-2.64-2.33"/>
    <path class="cls-18" d="m359.46,414.42c33.43-21.4,54.98-59.56,57.18-92.13,16.28,40.95,23.31,81.43,23.31,81.43-13.2,6.05-80.5,10.7-80.5,10.7Z"/>
    <path class="cls-18" d="m360.39,414.83c-.91,1.32-.99,2.23,0,3.09l79.92-8.35c1.9-1.75.95-3.27,0-3.39-.95-.12-79.92,8.65-79.92,8.65Z"/>
    <path class="cls-23" d="m417.52,320.9c-.59-4.97,8.36-3.72,9.68-1.4-2.2,4.19-9.24,5.12-9.68,1.4Z"/>
    <path class="cls-8" d="m483.28,418.84c3.13-.18,6.9-1.44,6.6-1.4,0,0,1.98-2.56,4.18-10.93"/>
    <path class="cls-8" d="m489.88,417.45c-.3,14.86-7.48,28.85-7.48,28.85"/>
    <path class="cls-4" d="m463.93,523.53c-.71-4.34-1.03-12.11-1.15-20.87-.23-17.06.3-37.9.11-44.51-.28-10,8.73-9.77,8.73-9.77,0,0,0-3.72,0-1.86v1.86-25.59c-3.74.02-3.3-4.66,0-4.43v-3.09c2.64,1.47,9.36.47,9.24.08s.13,2.55.13,2.55c2.21-.32,4.42,3.77-.13,4.9l1.54,25.36c9.54-1.74,10.56,9.31,10.56,11.63s1.1,63.51,1.1,63.51"/>
    <path class="cls-17" d="m412.79,498.77c7.82-8.04,17.04-14.09,21.67-8.27,4.63,5.82,14.69,14.1,21.53,2.98"/>
    <path class="cls-2" d="m488.78,446.99c6.16-7.91,9.88-6.51,13.52,0"/>
    <line class="cls-19" x1="344.68" y1="483.53" x2="377.28" y2="481.04"/>
    <path class="cls-11" d="m383.21,484.68c2.2.93,12.37-1.68,12.37-1.68"/>
    <line class="cls-11" x1="348.01" y1="484.88" x2="357.26" y2="484.22"/>
    <line class="cls-11" x1="362.77" y1="483.94" x2="373.96" y2="483"/>
    <path class="cls-11" d="m361.66,485.61c2.64.47,11.7-1.06,11.7-1.06"/>
    <path class="cls-11" d="m346,496.91c1.75-1.87,18.08-2.57,19.1-2.08"/>
    <path class="cls-11" d="m378.04,499.26c1.21-1.55,22.14-1.76,23.55-.49"/>
    <path class="cls-11" d="m374.86,496.31c2.64-1.4,11.79-1.07,11.79-1.07"/>
    <path class="cls-1" d="m352.86,498.84c3.08,2.16,12.32.86,12.32.86"/>
    <path class="cls-5" d="m419.72,322.76l-3.08-.47"/>
    <path class="cls-2" d="m481.14,469.09c-2.47,2.09-8.63,2.09-10.39,2.09s-2.6,9.38-2.6,9.38c-.92-5.65-3.56-8.45-3.12-9.38s1.88.71.89,1.71c-1.15,1.16-1.56,1.78-1.56,1.78"/>
    <path class="cls-2" d="m470.63,477.01c-.44,2.33-.27,3.26.31,3.26.57,0,1.18-2.81,1.35-3.26.54-1.4,1.42-1.86,1.86.47"/>
    <path class="cls-2" d="m472.15,477.55c-.21,2.26.91,2.77,1.99,1.79.79-.72,1.89-3.56,1.76-6.98"/>
    <path class="cls-2" d="m474.27,473.51c.44-.47,3.52-.93,4.4-.47"/>
    <path class="cls-2" d="m475.8,474.73c.1,4.14.1,5.54.98,5.07.61-.32,1.01-2.22,1.49-3.19.21-.42.44-.67.71-.53.88.47,1.32,3.72,0,3.72s-1.32-3.26-.44-2.79c.88.47,3.08,0,3.96-.93s-.18-1.91-.44-.47c-.3,1.66,1.43,1.43,2.2.93-.88,2.33-.88,3.39,0,3.09,0,0,1.32-.76,1.76-2.62-.44,3.26.61,3.72.96,2.79.33-2.89,2.03-4.19,2.55-1.4"/>
    <path class="cls-2" d="m489.54,478.41c0,2.79-2.73,2.91-2.29.12"/>
    <path class="cls-2" d="m490.2,476.93c-.44,1.4-.94,3.8.81,3.06"/>
    <path class="cls-1" d="m345.38,444.67c.88-2.33,1.76-4.19-.88-6.05-2.64-1.86,0-4.49,0-4.49"/>
    <path class="cls-1" d="m350.22,445.13c1.76-2.33,0-5.12-.88-6.51-.88-1.4-2.97-6.14.44-6.98"/>
    <path class="cls-1" d="m353.78,446.99c.84-1.86,1.36-5.79,0-6.85-1.36-1.06-1.91.55-1.36,1.73.44.93,2.18.06,2.19-1.63,0-.7-.43-1.16-.87-2.09-.71-1.5-2.1-4.59.93-4.39"/>
    <path class="cls-11" d="m383.79,450.03c1.18-1.18,3.08-.42,4.26,2.08.73,1.56,1.33,1.74,2.64,1.4,1.53-.4,3.34,1.59,1.32,3.72"/>
    <path class="cls-17" d="m471.41,424.43l-.03,23.41c-8.07.78-8.8,6.98-8.8,8.38,0,.85-22.02,7.53-39.59,1.4-11.33-3.95-21.32-16.55-23.75-25.13l69.54-12.03"/>
    <path class="cls-13" d="m320.53,262.86h195.3v260.67h-195.3v-260.67h-6.4l.02-10.13h32.33c14.52,0,43.55,3.72,57.62-5.58,6.6-4.36,10.56-6.74,14.08-6.98,9.81-.67,9.43,3.54,17.15,8.38,6.95,4.35,28.82,3.12,45.09,3.49l39.79.38.3,10.39s.02.1-1.29.05c-1.32,0-3.11.03-3.11.03"/>
    <polyline class="cls-13" points="503.52 523.53 503.52 272.43 331.5 272.43 331.5 523.53"/>
    <polyline class="cls-13" points="308 533.3 524 533.3 524 523.53 515.83 523.53 308 523.53 308 533.3"/>
    <polyline class="cls-13" points="315.03 533.54 329.33 546.1 505.32 546.1 515.83 533.54"/>
    <path class="cls-10" d="m379.69,445.6c.44,0,1.32,0,1.76.93"/>
    <path class="cls-10" d="m379.47,446.17c.33,0,.99,0,1.32.59"/>
    <path class="cls-10" d="m375.74,447.92c-.03-.67.35-1.81,1.32-1.86"/>
    <line class="cls-10" x1="374.44" y1="447.53" x2="376.39" y2="448.58"/>
    <line class="cls-10" x1="374.86" y1="446.54" x2="376.81" y2="447.53"/>
    <line class="cls-10" x1="377.58" y1="446.54" x2="375.83" y2="445.44"/>
    <line class="cls-10" x1="374.61" y1="447.03" x2="375.3" y2="447.46"/>
    <line class="cls-10" x1="375.29" y1="446.06" x2="376.44" y2="446.76"/>
    <line class="cls-10" x1="376.39" y1="445.07" x2="377.25" y2="445.6"/>
    <line class="cls-10" x1="377.25" y1="444.71" x2="377.76" y2="445.07"/>
    <path class="cls-10" d="m366.94,460.95c-.28-1.86-.41-4.19,2.21-4.65,2.63-.47,2.17-1.89,2.63-3.26"/>
    <path class="cls-17" d="m494.94,495.85c.44,1.4,1.76,2.33,3.08.93,1.32-1.4,2.2-1.4,3.52,0"/>
    <path class="cls-2" d="m470.65,475.59c0,.27.2.27.2,0s-.2-.27-.2,0Z"/>
    <path class="cls-2" d="m486.16,475.91c0,.27.2.27.2,0s-.2-.27-.2,0Z"/>
    <path class="cls-2" d="m452,462.46c0,.27.2.27.2,0s-.2-.27-.2,0Z"/>
    <path class="cls-2" d="m444.52,467.11c0,.27.2.27.2,0s-.2-.27-.2,0Z"/>
    <path class="cls-2" d="m411.97,499.82c0,.27.2.27.2,0s-.2-.27-.2,0Z"/>
    <path class="cls-2" d="m456.4,492.38c0,.27.2.27.2,0s-.2-.27-.2,0Z"/>
    <path class="cls-2" d="m502.26,497.5c0,.27.2.27.2,0s-.2-.27-.2,0Z"/>
    <path class="cls-2" d="m488.18,448.03c0,.27.2.27.2,0s-.2-.27-.2,0Z"/>
    <path class="cls-2" d="m502.7,448.03c0,.27.2.27.2,0s-.2-.27-.2,0Z"/>
    <path class="cls-3" d="m371.56,451.88c.66-2,3.08-.93,3.08-.47"/>
    <path class="cls-6" d="m383.21,451.18c.64-.5,2.21-.32,2.64,1.4.45,1.8.44,2.79.88,3.72s2,1.45,2.64.93"/>
    <path class="cls-6" d="m393.77,461.42c1.32,1.86,1.76,7.91.88,9.77"/>
    <path class="cls-6" d="m393.55,462.58c.94,1.47,1.25,6.24.62,7.71"/>
    <path class="cls-7" d="m435.56,326.48c6.57,2.04,22.97,13.45,36.51,30.24,11.35,14.08,20.52,32.69,21.99,45.6"/>
    <path class="cls-2" d="m434.29,326.36c0,.27.2.27.2,0s-.2-.27-.2,0"/>
    <path class="cls-2" d="m494.13,403.7c0,.27.2.27.2,0s-.2-.27-.2,0"/>
    <polygon class="cls-13" points="493.31 484.88 463.05 484.88 463.05 505.39 493.69 505.39 493.31 484.88"/>
    <path class="cls-2" d="m416.51,331.49c0,.27.2.27.2,0"/>
    <path class="cls-2" d="m368.87,408.82c0,.27.2.27.2,0"/>
    <path class="cls-2" d="m417.41,342.08c0,.27.2.27.2,0"/>
    <path class="cls-2" d="m417.61,340.4c0,.27.2.27.2,0"/>
    <path class="cls-10" d="m401.69,434.89c.44,4.19,13.2,19.08,18.03,19.54"/>
    <line class="cls-10" x1="408.59" y1="447.23" x2="411.36" y2="446.06"/>
    <line class="cls-10" x1="409.83" y1="449.1" x2="412.01" y2="447.97"/>
    <line class="cls-10" x1="411.84" y1="450.7" x2="414" y2="449.78"/>
    <line class="cls-10" x1="414" y1="452.58" x2="417.08" y2="451.18"/>
    <line class="cls-10" x1="417.96" y1="454.9" x2="420.16" y2="453.97"/>
    <line class="cls-10" x1="409.04" y1="447.82" x2="410.92" y2="446.99"/>
    <line class="cls-10" x1="409.6" y1="448.39" x2="410.48" y2="447.92"/>
    <line class="cls-10" x1="410.92" y1="449.8" x2="413.83" y2="448.33"/>
    <line class="cls-10" x1="411.34" y1="450.15" x2="413.12" y2="449.32"/>
    <line class="cls-10" x1="412.66" y1="451.25" x2="414" y2="450.71"/>
    <line class="cls-10" x1="413.49" y1="451.89" x2="415.48" y2="450.9"/>
    <line class="cls-10" x1="415.83" y1="453.63" x2="417.08" y2="453.19"/>
    <line class="cls-10" x1="415.14" y1="453.01" x2="416.2" y2="452.58"/>
    <line class="cls-10" x1="416.64" y1="453.97" x2="417.96" y2="453.51"/>
    <path class="cls-18" d="m423.94,320.87s-1.86-1.4-4.06,1.39l26.23,101.79,4.56-.36-26.73-102.82c48.29,11.16,75.12,72.12,73.8,86.54-21.99-4.19-51.02-6.05-51.9-5.58,16.71-23.26-14.77-77.56-21.99-80.96"/>
    <path class="cls-22" d="m411.8,464.21c2.6-2.02,12.47-12.27,18.61-16.1,6.34-3.96,16.38-4.08,20.78-1.35-7.79,4.71-16.45,12.12,0,15.49"/>
    <path class="cls-22" d="m418.84,465.6c2.2-6.51,15.01-15.48,18.47-12.1-3.79,1.97-10.36,9.42,6.09,13.46"/>
    <path class="cls-12" d="m412.24,462.35c4.03-2.42,14.7-13.59,19.35-15.82,7.02-3.37,16.2-2.75,20.67,0-8.22,5.3-16.3,12.13-1.32,14.89"/>
    <path class="cls-2" d="m418.57,467.11c0,.27.2.27.2,0s-.2-.27-.2,0Z"/>
    <path class="cls-2" d="m410.65,465.25c0,.27.2.27.2,0s-.2-.27-.2,0Z"/>
    <path class="cls-2" d="m409.77,466.18c0,.27.2.27.2,0s-.2-.27-.2,0Z"/>
    <g>
      <path class="cls-7" d="m472.51,492.59c-3.88-.68-4.6,3.35-1.76,6.98l.02,3.12,15.38.14.07-3.37c1.88-1.87,3-7.79-1.83-6.86"/>
      <path class="cls-7" d="m473.83,499.57c-1.86-3.3-3.08-12.74,4.4-6.98"/>
      <path class="cls-7" d="m476.02,499.57c-.19-1.25,1.62-6.15,2.2-6.98.57-.81,2.44,4.78,2.64,6.98"/>
      <path class="cls-7" d="m483.5,499.57c.94-1.86,2.82-13.46-4.84-6.98"/>
      <polygon class="cls-11" points="477.34 487.47 478.39 486.33 479.54 487.47 478.44 488.8 477.34 487.47"/>
      <line class="cls-11" x1="478.44" y1="492.2" x2="478.44" y2="488.8"/>
      <polygon class="cls-11" points="473.19 501.22 474.27 500.04 475.46 501.19 474.32 502.43 473.19 501.22"/>
      <polygon class="cls-11" points="482.02 501.34 483.1 500.15 484.3 501.31 483.16 502.55 482.02 501.34"/>
      <polygon class="cls-11" points="477.62 501.34 478.7 500.15 479.9 501.31 478.76 502.55 477.62 501.34"/>
      <line class="cls-7" x1="470.75" y1="499.57" x2="486.14" y2="499.57"/>
    </g>
    <path class="cls-11" d="m416.64,333.46c-1.32,22.33-24.19,64.21-46.63,74.91"/>
    <path class="cls-11" d="m417.3,343.46c-1.32,6.51-13.41,49.3-45.75,67"/>
    <path class="cls-21" d="m482.84,390.92c0-.47,10.56-7.44,10.56-7.44l2.64,8.84-3.52,6.51-9.68-7.91Z"/>
    <path class="cls-21" d="m485.92,387.11c.7-.65,8.05-5.95,8.05-5.95l1.63,2.65-8.16,6.19-1.52-2.45"/>
    <path class="cls-21" d="m487.24,382.88c.29-.24,3.29-2.19,3.29-2.19l.67.98-3.34,2.28-.62-.9"/>
    <path class="cls-2" d="m483.72,403.49c-1.32-.93-3.08-11.17,14.08-20.01-1.76,18.15-11,21.4-14.08,20.01-3.08-1.4-12.76,67-8.32,63.28,4.43-3.72,6.12-34.43,4.8-36.29l-5.18,35.55"/>
    <path class="cls-2" d="m495.16,384.88s.44-2.79,1.32-4.65c.88-1.86-18.03,6.51-13.64,20.47"/>
    <path class="cls-2" d="m483.72,403.49c-13.64-14.42,9.68-25.13,9.68-25.13v2.33"/>
    <path class="cls-2" d="m475.36,466.77c3.96-24.2,4.4-57.7-7.48-79.57,6.16-7.44-.88-20.94-6.6-25.13-6.6,13.49-1.76,24.2,6.6,25.13"/>
    <path class="cls-2" d="m467.89,387.2c5.28-6.05,6.47-14.42-2.27-25.13-.81,1.4-1.71,2.47-1.71,2.47"/>
    <path class="cls-2" d="m467.01,387.2c-14.64,1.67-13.63-21.96-8.8-24.2l1.91,1.74"/>
    <g>
      <path class="cls-11" d="m331.75,341.37c1.76-4.19,14.08-7.91,15.18-11.86,1.19-4.29-.22-4.42-4.18-7.21-3.96-2.79-8.14-9.54-4.62-17.45,3.52-7.91,2.64-10.7,2.64-12.1,1.54,3.02.66,2.56,7.48,8.38,6.82,5.82,6.03,15.64-.73,25.03-1.03-10.61-2.38-10.33-5.12-14.54s-1.41-17.71-1.41-17.71"/>
      <path class="cls-11" d="m331.75,336.91c4.84-5.78,4.84-9.85,0-15.49"/>
      <path class="cls-11" d="m344.74,332.14c2.84.86,12.96-2.86,14.28-5.19-4.4-3.26-3.52-11.63,2.64-17.22,6.16-5.58,5.72-7.91,6.16-9.77s.88,20.82-8.8,26.99c10.12-7.79,10.5-9.85,8.95-21.68"/>
      <path class="cls-11" d="m359.02,326.95c5.72-1.4,12.76-7.91,16.28-18.15-2.64-4.65-1.76-9.31,2.2-10.24,3.96-.93,3.81-1.96,4.4-2.79.86-1.21-3.06,7.33-3.96,8.84-.52.88-2.64,4.19-2.64,4.19.44-5.12,5.72-11.63,5.72-11.63"/>
      <path class="cls-11" d="m372.33,315.33c3.85-.94,10.45-11.64,10.45-11.64,2.64-1.86,3.22-1.4,5.35,0s6.96-3.72,6.96-6.98c-2.74.98-2.63.47-4.84.47-3.76-.1-7.03,4.23-7.48,6.51"/>
      <path class="cls-11" d="m370.52,318.44c6.87-3.81,7.08-7.38,8.74-7.78,3.54-.85,6.16-5.58,6.16-5.58,0,6.05-2.64,6.51-6.16,5.58"/>
      <path class="cls-11" d="m355.59,329.41c3.87,1.26,7.83.33,10.03-2.93,2.2-3.26,10.56-7.44,17.59-3.72,3.52,2.33,7.48.47,7.48.47-4.4,9.77-10.56,16.29-14.08,16.29"/>
      <path class="cls-11" d="m357.48,329.85c3.3,1.75,11.66.82,14.74-1.51,3.08-2.33,6.6-2.33,12.32-1.86s6.16-3.26,6.16-3.26"/>
      <path class="cls-11" d="m352.99,330.76c3.4-.09,6.47,1.27,6.47,1.27,4.84-.42,22.43.04,16.71,19.58-1.32-5.12-2.64-5.22-5.28-6.1-2.64-.88-12.32-1.81-12.76-13.91"/>
      <path class="cls-11" d="m359.46,332.07c8.8,2.79,9.35,2.4,15.01,15.39"/>
      <path class="cls-11" d="m345.85,336.25c12.11,6.86,18.81,20.11,3.05,27.45"/>
      <path class="cls-11" d="m342.37,333.99c1.7.86,3.46,2.26,3.46,2.26-6.63,8.18-11.44,16.75-1.76,26.06,2.2,1.4,1.34,1.3,3.1,3.63s5.85-4.06,6.6-5.12"/>
      <path class="cls-10" d="m349.63,341.18c2.79,2.05,8.07,8.57,5.87,14.61"/>
      <path class="cls-10" d="m354.62,354.86h1.76"/>
      <path class="cls-10" d="m355.5,353.47h.88"/>
      <line class="cls-10" x1="355.59" y1="352.48" x2="356.6" y2="352.48"/>
      <path class="cls-10" d="m354.16,351.61h2.63"/>
      <path class="cls-10" d="m355.06,353h1.72"/>
      <line class="cls-10" x1="355.06" y1="351.14" x2="356.78" y2="351.14"/>
      <line class="cls-10" x1="355.21" y1="350.27" x2="356.37" y2="350.27"/>
    </g>
    <path class="cls-15" d="m339.18,367.12c3.45-3.65,6.24-3.45,6.24-3.45"/>
    <path class="cls-11" d="m331.69,361.95c1.76-.82,7.35-16.48,8.04-17.84s-1.03-6.21-1.03-6.21l-.27,2.29"/>
    <path class="cls-11" d="m339.18,344.93c-1.56-.37-.48-7.03-.48-7.03"/>
    <path class="cls-11" d="m331.88,361.98c.55-1.84,6.09-1.54,6.09-1.54,0,0-7.01,4.6-6.09,1.54Z"/>
    <path class="cls-11" d="m335.97,353.51c-.91,1.27-2.37-5.09-2.37-5.09,0,0,4.15,2.6,2.37,5.09Z"/>
  </g>
  <text class="cls-24" transform="translate(420.2 406.57) rotate(-11.71)"><tspan x="0" y="0">Ex Libris</tspan></text>
</svg>