<?xml version="1.0" encoding="UTF-8"?>
<svg id="Layer_1" data-name="Layer 1" xmlns="http://www.w3.org/2000/svg" viewBox="0 0 199.5 282.24">
  <defs>
    <style>
      .cls-1, .cls-2, .cls-3, .cls-4 {
        fill: #231f20;
      }

      .cls-1, .cls-5, .cls-6, .cls-7, .cls-8, .cls-9, .cls-10, .cls-11, .cls-12, .cls-4, .cls-13, .cls-14, .cls-15, .cls-16, .cls-17, .cls-18, .cls-19 {
        stroke-linecap: round;
      }

      .cls-1, .cls-5, .cls-6, .cls-7, .cls-8, .cls-10, .cls-11, .cls-12, .cls-4, .cls-13, .cls-14, .cls-16, .cls-17, .cls-18 {
        stroke-linejoin: round;
      }

      .cls-1, .cls-5, .cls-6, .cls-8, .cls-9, .cls-20, .cls-10, .cls-21, .cls-11, .cls-12, .cls-3, .cls-4, .cls-14, .cls-15, .cls-22, .cls-17, .cls-18, .cls-23, .cls-19, .cls-24 {
        stroke: #231f20;
      }

      .cls-1, .cls-7, .cls-8, .cls-21, .cls-19 {
        stroke-width: .46px;
      }

      .cls-2 {
        font-family: BodoniSvtyTwoSCITCTT-Book, 'Bodoni 72 Smallcaps';
        font-size: 4.39px;
      }

      .cls-5 {
        stroke-width: 1.38px;
      }

      .cls-5, .cls-6, .cls-7, .cls-8, .cls-9, .cls-20, .cls-10, .cls-21, .cls-11, .cls-12, .cls-15, .cls-22, .cls-16, .cls-17, .cls-18, .cls-23, .cls-19, .cls-24 {
        fill: none;
      }

      .cls-6 {
        stroke-width: 1.84px;
      }

      .cls-7, .cls-13, .cls-16 {
        stroke: #fff;
      }

      .cls-9, .cls-20, .cls-21, .cls-3, .cls-15, .cls-22, .cls-23, .cls-19, .cls-24 {
        stroke-miterlimit: 10;
      }

      .cls-9, .cls-13, .cls-14, .cls-16, .cls-18, .cls-24 {
        stroke-width: .69px;
      }

      .cls-20 {
        stroke-width: .92px;
      }

      .cls-10 {
        stroke-width: .31px;
      }

      .cls-11 {
        stroke-width: 1.61px;
      }

      .cls-12, .cls-15 {
        stroke-width: .23px;
      }

      .cls-3, .cls-4, .cls-17, .cls-23 {
        stroke-width: .34px;
      }

      .cls-13, .cls-14 {
        fill: #fff;
      }

      .cls-22 {
        stroke-width: 1.15px;
      }
    </style>
  </defs>
  <g>
    <path class="cls-10" d="m34.18,113.37c-2.32.07-4.52,1.56-5.15,3.99"/>
    <path class="cls-10" d="m22.43,124.3c3.08-1.02,3.76-4.23,5.99-6.28,2.37-2.18,5.32.82,7.4-2.49"/>
    <path class="cls-10" d="m22.1,126.22c4.34-2.35,4.47-4.56,5.52-4.8,2.23-.53,3.89-3.45,3.89-3.45,0,3.74-1.67,4.02-3.89,3.45"/>
    <path class="cls-10" d="m22.35,124.42c2.14-.05,4.09.78,4.09.78,3.05-.26,14.16.03,10.55,12.1-.83-3.16-1.67-3.23-3.33-3.77-1.67-.54-7.78-1.12-8.05-8.59"/>
    <path class="cls-10" d="m26.44,125.23c5.55,1.72,5.91,1.48,9.48,9.51"/>
    <path class="cls-11" d="m88.01,228.95l-56.01.02s-4.45-5.37,0-9.27c0,0,1.42-.16,55.61-.16"/>
    <path class="cls-6" d="m30.18,230.66h57.8c6.09,3.42,1.24,14.72-1.39,14.21s-56.41,0-56.41,0"/>
    <path class="cls-5" d="m89.22,246.28h-56.82c-3.84,3.42-1.42,12.4,0,13.26s56.41,0,56.41,0"/>
    <path class="cls-8" d="m31.8,220.61c-1.62,1.5-.83,6.46.4,6.94,1.67.66,56.57.5,54.59,0-4.04-2.02-1.32-6.94-1.32-6.94H31.8Z"/>
    <path class="cls-8" d="m32.61,231.73c1.62,4.28,0,10.27-1.63,11.98l54.59,1.09c4.05-2.38,3.74-10.93,1.87-13.07h-54.84Z"/>
    <path class="cls-8" d="m87.6,259.75c-8.09-1.71-7.28-12.19,0-13.37l-54.59.54c-3.24,3.42,0,12.83,0,12.83h54.59Z"/>
    <path class="cls-8" d="m37.26,252.69c-.4-2.14,11.32-.43,11.32-.43"/>
    <line class="cls-8" x1="63.95" y1="253.98" x2="76.85" y2="253.98"/>
    <path class="cls-8" d="m63.95,251.07c2.43-.94,9.01,0,9.01,0"/>
    <path class="cls-8" d="m63.14,257.4c1.21-.86,16.13,0,16.13,0"/>
    <line class="cls-8" x1="52.22" y1="255.26" x2="77.49" y2="255.26"/>
    <line class="cls-8" x1="57.39" y1="252.69" x2="77.49" y2="252.69"/>
    <path class="cls-8" d="m66.02,247.8c1.16-.67,9.74,0,9.74,0"/>
    <path class="cls-8" d="m68.26,248.63c1.16-.67,9.74,0,9.74,0"/>
    <path class="cls-4" d="m50.2,195.8c3.02,4.71,1.27,21.29-2.2,22.62h-10.75c-4.91-2.41-7.07-18.21-4.84-22.62,1.72,3.17,16.6,2.42,17.79,0Z"/>
    <path class="cls-3" d="m32.43,209.92c0,1.71-12.54,5.13-6.87-2.57,0,0-5.26-11.12,6.04-3.83l.02,2.12c-7.66-5.19-3.24,1.71-3.24,1.71-4.85,5.56,3.64,1.28,3.64,1.28l.4,1.28Z"/>
    <path class="cls-23" d="m50.2,195.8c-.4-1.71-16.98-2.14-17.79,0"/>
    <polyline class="cls-18" points="50.4 214.62 84.17 214.2 80.93 218.9 50.2 218.9 49.31 217.11"/>
    <path class="cls-8" d="m69.61,193.23c.21-6.99-9.32-5.96-8.09,0-.81.43-1.98,1.12-1.98,1.12-2.47-1.41-4.81-.54-5.3,2.73-.12.78-.45.99-.81,1.28-.63.53-2.12.6-2.12.6"/>
    <path class="cls-8" d="m80.93,214.2c1.62-2.57-.81-11.98-2.83-14.54"/>
    <path class="cls-8" d="m51.41,204.36c.81.86,2.43,0,2.43,0,.97,3.42,5.77,2.99,6.73,0,.96-2.99-1.11-3.87,1.36-5.56,2.46-1.68,1.23-3.58.88-4.01-1.63-2-4.93-1.3-4.59,1.45.18,1.52-.53,2.02-1.54,2.14-1.18.14-2.37,1.16-2.83,2.57s-.2,3.21,0,3.42"/>
    <path class="cls-8" d="m61.92,198.8c2.52.58,1.62,3.85,1.21,4.71-1.35,2.85-1.22,5.81,1.86,5.85,1.39.02,6.39.06,3.8-5.42-.81-1.71-1.09-.58-.81-5.56.26-4.62-1.55-5.73-5.26-3.85"/>
    <path class="cls-8" d="m67.59,194.52c.9-1.84,4.85-1.28,5.26,1.71s.4,3.02,2.43,2.99c2.67-.03,4.04,3.42,2.43,5.56-1.62,2.14-4.67,1.7-4.85-1.28-.13-2.07-.52-2.6-2.43-2.57-2.18.03-2.43-2.14-2.43-2.14"/>
    <path class="cls-21" d="m47.77,160.72c30.73-19.68,50.55-54.75,52.57-84.7,14.96,37.64,21.43,74.86,21.43,74.86-12.13,5.56-74,9.84-74,9.84Z"/>
    <path class="cls-21" d="m48.63,161.09c-.84,1.21-.91,2.05,0,2.84l73.47-7.68c1.75-1.61.87-3.01,0-3.12-.87-.11-73.47,7.95-73.47,7.95Z"/>
    <path class="cls-3" d="m101.15,74.74c-.54-4.57,7.68-3.42,8.9-1.28-2.02,3.85-8.49,4.71-8.9,1.28Z"/>
    <path class="cls-24" d="m161.61,164.79c2.88-.16,6.34-1.32,6.07-1.28,0,0,1.82-2.35,3.84-10.05"/>
    <path class="cls-24" d="m167.67,163.5c-.27,13.66-6.87,26.52-6.87,26.52"/>
    <path class="cls-22" d="m143.81,261.04c-.66-3.99-.95-11.13-1.06-19.18-.21-15.69.28-34.84.1-40.92-.26-9.2,8.03-8.98,8.03-8.98,0,0,0-3.42,0-1.71v1.71-23.53c-3.44.02-3.03-4.28,0-4.08v-2.84c2.43,1.35,8.61.43,8.49.07s.12,2.34.12,2.34c2.04-.3,4.07,3.47-.12,4.5l1.42,23.31c8.77-1.6,9.71,8.56,9.71,10.69s1.01,58.39,1.01,58.39"/>
    <path class="cls-9" d="m96.79,238.27c7.19-7.39,15.67-12.95,19.92-7.6,4.25,5.35,13.51,12.97,19.8,2.74"/>
    <path class="cls-18" d="m166.66,190.67c5.66-7.27,9.08-5.99,12.43,0"/>
    <line class="cls-1" x1="34.18" y1="224.26" x2="64.15" y2="221.97"/>
    <path class="cls-8" d="m69.61,225.32c2.02.86,11.37-1.55,11.37-1.55"/>
    <line class="cls-8" x1="37.25" y1="225.5" x2="45.75" y2="224.89"/>
    <line class="cls-8" x1="50.82" y1="224.64" x2="61.1" y2="223.77"/>
    <path class="cls-8" d="m49.79,226.17c2.43.43,10.76-.98,10.76-.98"/>
    <path class="cls-8" d="m35.39,236.56c1.61-1.72,16.62-2.37,17.56-1.91"/>
    <path class="cls-8" d="m64.86,238.72c1.11-1.42,20.35-1.62,21.65-.45"/>
    <path class="cls-8" d="m61.92,236.01c2.43-1.28,10.84-.98,10.84-.98"/>
    <path class="cls-17" d="m41.7,238.33c2.83,1.98,11.32.79,11.32.79"/>
    <path class="cls-23" d="m103.17,76.45l-2.83-.43"/>
    <path class="cls-18" d="m159.64,210.99c-2.28,1.92-7.94,1.92-9.55,1.92s-2.39,8.62-2.39,8.62c-.84-5.2-3.27-7.76-2.86-8.62s1.73.65.82,1.57c-1.05,1.07-1.43,1.64-1.43,1.64"/>
    <path class="cls-18" d="m149.97,218.27c-.4,2.14-.25,2.99.28,2.99.53,0,1.08-2.59,1.24-2.99.5-1.28,1.31-1.71,1.71.43"/>
    <path class="cls-18" d="m151.37,218.76c-.19,2.08.84,2.55,1.83,1.65.73-.66,1.74-3.27,1.62-6.42"/>
    <path class="cls-18" d="m153.32,215.05c.4-.43,3.24-.86,4.04-.43"/>
    <path class="cls-18" d="m154.73,216.17c.09,3.81.09,5.09.9,4.66.56-.3.93-2.04,1.37-2.93.19-.39.4-.62.65-.49.81.43,1.21,3.42,0,3.42s-1.21-2.99-.4-2.57c.81.43,2.83,0,3.64-.86s-.17-1.76-.4-.43c-.27,1.53,1.31,1.32,2.02.86-.81,2.14-.81,3.11,0,2.84,0,0,1.21-.7,1.62-2.41-.4,2.99.56,3.42.89,2.57.3-2.66,1.87-3.86,2.35-1.28"/>
    <path class="cls-18" d="m167.36,219.55c0,2.57-2.51,2.68-2.11.11"/>
    <path class="cls-18" d="m167.97,218.19c-.4,1.28-.86,3.49.75,2.81"/>
    <path class="cls-17" d="m34.83,188.53c.81-2.14,1.62-3.85-.81-5.56-2.43-1.71,0-4.13,0-4.13"/>
    <path class="cls-17" d="m39.28,188.96c1.62-2.14,0-4.71-.81-5.99-.81-1.28-2.73-5.65.4-6.42"/>
    <path class="cls-17" d="m42.55,190.67c.78-1.71,1.25-5.32,0-6.3-1.25-.98-1.76.51-1.25,1.59.4.86,2,.06,2.01-1.5,0-.64-.4-1.07-.8-1.93-.65-1.38-1.93-4.22.85-4.04"/>
    <path class="cls-8" d="m70.14,193.46c1.08-1.08,2.83-.38,3.91,1.91.67,1.43,1.23,1.6,2.43,1.28,1.4-.37,3.07,1.46,1.21,3.42"/>
    <path class="cls-9" d="m150.69,169.92l-.03,21.52c-7.42.72-8.09,6.42-8.09,7.7,0,.78-20.24,6.92-36.4,1.28-10.42-3.64-19.6-15.22-21.84-23.1l63.93-11.06"/>
    <path class="cls-20" d="m11.98,21.38h179.55v239.65H11.98V21.38h-5.89l.02-9.31h29.72c13.34,0,40.03,3.42,52.98-5.13,6.07-4.01,9.71-6.2,12.94-6.42,9.02-.61,8.67,3.25,15.77,7.7,6.39,4,26.5,2.87,41.45,3.21l36.58.35.28,9.55s.01.09-1.18.05c-1.21,0-2.86.03-2.86.03"/>
    <polyline class="cls-20" points="180.21 261.04 180.21 30.18 22.06 30.18 22.06 261.04"/>
    <polyline class="cls-20" points=".46 270.02 199.04 270.02 199.04 261.04 191.53 261.04 .46 261.04 .46 270.02"/>
    <polyline class="cls-20" points="6.93 270.23 20.07 281.78 181.87 281.78 191.53 270.23"/>
    <path class="cls-12" d="m66.37,189.38c.4,0,1.21,0,1.62.86"/>
    <path class="cls-12" d="m66.17,189.91c.3,0,.91,0,1.21.54"/>
    <path class="cls-12" d="m62.73,191.52c-.03-.62.32-1.66,1.21-1.71"/>
    <line class="cls-12" x1="61.54" y1="191.16" x2="63.34" y2="192.13"/>
    <line class="cls-12" x1="61.92" y1="190.25" x2="63.72" y2="191.16"/>
    <line class="cls-12" x1="64.43" y1="190.25" x2="62.82" y2="189.24"/>
    <line class="cls-12" x1="61.7" y1="190.7" x2="62.33" y2="191.1"/>
    <line class="cls-12" x1="62.32" y1="189.81" x2="63.38" y2="190.45"/>
    <line class="cls-12" x1="63.34" y1="188.9" x2="64.13" y2="189.38"/>
    <line class="cls-12" x1="64.13" y1="188.57" x2="64.6" y2="188.9"/>
    <path class="cls-12" d="m54.64,203.5c-.26-1.71-.38-3.85,2.03-4.28,2.41-.43,2-1.74,2.41-2.99"/>
    <path class="cls-9" d="m172.32,235.58c.4,1.28,1.62,2.14,2.83.86s2.02-1.28,3.24,0"/>
    <path class="cls-18" d="m149.99,216.96c0,.25.18.25.18,0s-.18-.25-.18,0Z"/>
    <path class="cls-18" d="m164.25,217.25c0,.25.18.25.18,0s-.18-.25-.18,0Z"/>
    <path class="cls-18" d="m132.85,204.88c0,.25.18.25.18,0s-.18-.25-.18,0Z"/>
    <path class="cls-18" d="m125.97,209.16c0,.25.18.25.18,0s-.18-.25-.18,0Z"/>
    <path class="cls-18" d="m96.05,239.24c0,.25.18.25.18,0s-.18-.25-.18,0Z"/>
    <path class="cls-18" d="m136.89,232.39c0,.25.18.25.18,0s-.18-.25-.18,0Z"/>
    <path class="cls-18" d="m179.05,237.1c0,.25.18.25.18,0s-.18-.25-.18,0Z"/>
    <path class="cls-18" d="m166.11,191.62c0,.25.18.25.18,0s-.18-.25-.18,0Z"/>
    <path class="cls-18" d="m179.46,191.62c0,.25.18.25.18,0s-.18-.25-.18,0Z"/>
    <path class="cls-16" d="m58.89,195.16c.61-1.84,2.83-.86,2.83-.43"/>
    <path class="cls-15" d="m69.61,194.52c.59-.46,2.03-.29,2.43,1.28.41,1.65.4,2.57.81,3.42s1.84,1.34,2.43.86"/>
    <path class="cls-15" d="m79.31,203.93c1.21,1.71,1.62,7.27.81,8.98"/>
    <path class="cls-15" d="m79.11,205c.86,1.35,1.15,5.74.57,7.08"/>
    <path class="cls-19" d="m117.73,79.88c6.04,1.88,21.11,12.37,33.56,27.81,10.44,12.94,18.87,30.05,20.22,41.92"/>
    <path class="cls-18" d="m116.56,79.76c0,.25.18.25.18,0s-.18-.25-.18,0"/>
    <path class="cls-18" d="m171.58,150.87c0,.25.18.25.18,0s-.18-.25-.18,0"/>
    <polygon class="cls-20" points="170.83 225.5 143 225.5 143 244.35 171.17 244.35 170.83 225.5"/>
    <path class="cls-18" d="m100.22,84.48c0,.25.18.25.18,0"/>
    <path class="cls-18" d="m56.42,155.57c0,.25.18.25.18,0"/>
    <path class="cls-18" d="m101.04,94.21c0,.25.18.25.18,0"/>
    <path class="cls-18" d="m101.23,92.67c0,.25.18.25.18,0"/>
    <path class="cls-12" d="m86.59,179.55c.4,3.85,12.13,17.54,16.58,17.97"/>
    <line class="cls-12" x1="92.94" y1="190.89" x2="95.49" y2="189.81"/>
    <line class="cls-12" x1="94.08" y1="192.6" x2="96.08" y2="191.56"/>
    <line class="cls-12" x1="95.92" y1="194.07" x2="97.91" y2="193.23"/>
    <line class="cls-12" x1="97.91" y1="195.8" x2="100.75" y2="194.52"/>
    <line class="cls-12" x1="101.55" y1="197.94" x2="103.58" y2="197.08"/>
    <line class="cls-12" x1="93.35" y1="191.43" x2="95.08" y2="190.67"/>
    <line class="cls-12" x1="93.87" y1="191.95" x2="94.68" y2="191.52"/>
    <line class="cls-12" x1="95.08" y1="193.25" x2="97.75" y2="191.9"/>
    <line class="cls-12" x1="95.46" y1="193.57" x2="97.11" y2="192.81"/>
    <line class="cls-12" x1="96.68" y1="194.58" x2="97.91" y2="194.09"/>
    <line class="cls-12" x1="97.44" y1="195.17" x2="99.27" y2="194.26"/>
    <line class="cls-12" x1="99.59" y1="196.77" x2="100.75" y2="196.36"/>
    <line class="cls-12" x1="98.96" y1="196.2" x2="99.94" y2="195.8"/>
    <line class="cls-12" x1="100.34" y1="197.08" x2="101.55" y2="196.66"/>
    <path class="cls-21" d="m107.05,74.71s-1.71-1.29-3.73,1.28l24.11,93.58,4.19-.33-24.58-94.53c44.39,10.26,69.06,66.3,67.85,79.56-20.22-3.85-46.91-5.56-47.72-5.13,15.37-21.39-13.58-71.31-20.22-74.43"/>
    <path class="cls-14" d="m95.89,206.5c2.39-1.86,11.47-11.28,17.11-14.8,5.83-3.64,15.06-3.76,19.11-1.24-7.17,4.33-15.13,11.14,0,14.24"/>
    <path class="cls-14" d="m102.36,207.78c2.02-5.99,13.8-14.23,16.98-11.12-3.48,1.81-9.53,8.66,5.6,12.37"/>
    <path class="cls-7" d="m96.3,204.78c3.7-2.23,13.51-12.49,17.79-14.54,6.45-3.09,14.9-2.53,19.01,0-7.56,4.87-14.98,11.15-1.21,13.69"/>
    <path class="cls-18" d="m102.11,209.16c0,.25.18.25.18,0s-.18-.25-.18,0Z"/>
    <path class="cls-18" d="m94.84,207.45c0,.25.18.25.18,0s-.18-.25-.18,0Z"/>
    <path class="cls-18" d="m94.03,208.31c0,.25.18.25.18,0s-.18-.25-.18,0Z"/>
    <g>
      <path class="cls-19" d="m151.7,232.59c-3.57-.62-4.23,3.08-1.62,6.42l.02,2.86,14.14.13.06-3.1c1.72-1.72,2.75-7.16-1.68-6.31"/>
      <path class="cls-19" d="m152.91,239.01c-1.71-3.04-2.83-11.71,4.04-6.42"/>
      <path class="cls-19" d="m154.93,239.01c-.18-1.15,1.49-5.66,2.02-6.42.52-.75,2.24,4.39,2.43,6.42"/>
      <path class="cls-19" d="m161.81,239.01c.87-1.71,2.59-12.37-4.45-6.42"/>
      <polygon class="cls-8" points="156.15 227.88 157.11 226.84 158.17 227.88 157.16 229.11 156.15 227.88"/>
      <line class="cls-8" x1="157.16" y1="232.23" x2="157.16" y2="229.11"/>
      <polygon class="cls-8" points="152.32 240.52 153.32 239.43 154.42 240.5 153.37 241.63 152.32 240.52"/>
      <polygon class="cls-8" points="160.45 240.63 161.44 239.54 162.54 240.6 161.49 241.74 160.45 240.63"/>
      <polygon class="cls-8" points="156.4 240.63 157.4 239.54 158.49 240.6 157.45 241.74 156.4 240.63"/>
      <line class="cls-19" x1="150.08" y1="239.01" x2="164.24" y2="239.01"/>
    </g>
    <path class="cls-8" d="m100.34,86.29c-1.21,20.53-22.24,59.03-42.87,68.87"/>
    <path class="cls-8" d="m100.95,95.49c-1.21,5.99-12.33,45.32-42.06,61.6"/>
    <path class="cls-13" d="m161.2,139.12c0-.43,9.71-6.84,9.71-6.84l2.43,8.13-3.24,5.99-8.9-7.27Z"/>
    <path class="cls-13" d="m164.03,135.61c.65-.6,7.4-5.47,7.4-5.47l1.5,2.44-7.5,5.69-1.4-2.25"/>
    <path class="cls-13" d="m165.25,131.73c.27-.22,3.03-2.02,3.03-2.02l.61.9-3.07,2.1-.57-.83"/>
    <path class="cls-18" d="m162.01,150.67c-1.21-.86-2.83-10.27,12.94-18.39-1.62,16.68-10.11,19.68-12.94,18.39-2.83-1.28-11.73,61.6-7.65,58.18s5.63-31.66,4.42-33.37l-4.76,32.69"/>
    <path class="cls-18" d="m172.53,133.56s.4-2.57,1.21-4.28-16.58,5.99-12.54,18.82"/>
    <path class="cls-18" d="m162.01,150.67c-12.54-13.26,8.9-23.1,8.9-23.1v2.14"/>
    <path class="cls-18" d="m154.33,208.85c3.64-22.24,4.04-53.04-6.87-73.15,5.66-6.84-.81-19.25-6.07-23.1-6.07,12.41-1.62,22.24,6.07,23.1"/>
    <path class="cls-18" d="m147.45,135.7c4.85-5.56,5.94-13.26-2.08-23.1-.75,1.28-1.57,2.27-1.57,2.27"/>
    <path class="cls-18" d="m146.64,135.7c-13.46,1.53-12.53-20.19-8.09-22.24l1.75,1.6"/>
    <g>
      <path class="cls-8" d="m22.29,93.56c1.62-3.85,12.94-7.27,13.95-10.91,1.1-3.95-.2-4.06-3.84-6.63-3.64-2.57-7.48-8.77-4.25-16.04,3.24-7.27,2.43-9.84,2.43-11.12,1.42,2.78.61,2.35,6.87,7.7,6.27,5.35,5.54,14.37-.67,23.01-.95-9.75-2.19-9.49-4.7-13.37s-1.3-16.28-1.3-16.28"/>
      <path class="cls-8" d="m22.29,89.47c4.45-5.31,4.45-9.05,0-14.24"/>
      <path class="cls-8" d="m34.24,85.07c2.61.79,11.91-2.63,13.13-4.77-4.04-2.99-3.24-10.69,2.43-15.83,5.66-5.13,5.26-7.27,5.66-8.98s.81,19.14-8.09,24.81c9.3-7.16,9.65-9.05,8.23-19.93"/>
      <path class="cls-8" d="m47.37,80.3c5.26-1.28,11.73-7.27,14.96-16.68-2.43-4.28-1.62-8.56,2.02-9.41,3.64-.86,3.5-1.8,4.04-2.57.79-1.12-2.81,6.74-3.64,8.13-.48.81-2.43,3.85-2.43,3.85.4-4.71,5.26-10.69,5.26-10.69"/>
      <path class="cls-8" d="m59.6,69.62c3.54-.87,9.61-10.71,9.61-10.71,2.43-1.71,2.96-1.28,4.92,0s6.4-3.42,6.4-6.42c-2.52.9-2.42.43-4.45.43-3.46-.09-6.46,3.89-6.87,5.99"/>
      <path class="cls-8" d="m57.94,72.48c6.32-3.5,6.51-6.78,8.03-7.15,3.25-.79,5.66-5.13,5.66-5.13,0,5.56-2.43,5.99-5.66,5.13"/>
      <path class="cls-8" d="m44.21,82.57c3.56,1.16,7.2.3,9.22-2.69,2.02-2.99,9.71-6.84,16.18-3.42,3.24,2.14,6.87.43,6.87.43-4.04,8.98-9.71,14.97-12.94,14.97"/>
      <path class="cls-8" d="m45.95,82.97c3.03,1.61,10.72.75,13.55-1.38s6.07-2.14,11.32-1.71,5.66-2.99,5.66-2.99"/>
      <path class="cls-8" d="m41.82,83.81c3.12-.08,5.95,1.16,5.95,1.16,4.45-.39,20.62.04,15.37,18-1.21-4.71-2.43-4.8-4.85-5.61-2.43-.81-11.32-1.66-11.73-12.79"/>
      <path class="cls-8" d="m47.77,85.01c8.09,2.57,8.6,2.21,13.8,14.15"/>
      <path class="cls-8" d="m35.26,88.86c11.13,6.31,17.29,18.49,2.81,25.24"/>
      <path class="cls-8" d="m32.06,86.78c1.56.79,3.18,2.08,3.18,2.08-6.09,7.52-10.51,15.4-1.62,23.96,2.02,1.28,1.23,1.2,2.85,3.34,1.62,2.14,5.38-3.73,6.07-4.71"/>
      <path class="cls-12" d="m38.73,93.39c2.57,1.89,7.42,7.88,5.4,13.44"/>
      <path class="cls-12" d="m43.32,105.97h1.62"/>
      <path class="cls-12" d="m44.13,104.69h.81"/>
      <line class="cls-12" x1="44.21" y1="103.78" x2="45.14" y2="103.78"/>
      <path class="cls-12" d="m42.89,102.97h2.42"/>
      <path class="cls-12" d="m43.73,104.26h1.58"/>
      <line class="cls-12" x1="43.73" y1="102.55" x2="45.31" y2="102.55"/>
      <line class="cls-12" x1="43.87" y1="101.74" x2="44.93" y2="101.74"/>
    </g>
    <path class="cls-10" d="m29.13,117.24c3.17-3.36,5.73-3.17,5.73-3.17"/>
    <path class="cls-8" d="m22.24,112.48c1.62-.76,6.75-15.16,7.39-16.4s-.94-5.71-.94-5.71l-.25,2.11"/>
    <path class="cls-8" d="m29.13,96.84c-1.44-.34-.45-6.47-.45-6.47"/>
    <path class="cls-8" d="m22.41,112.51c.5-1.69,5.6-1.41,5.6-1.41,0,0-6.44,4.23-5.6,1.41Z"/>
    <path class="cls-8" d="m26.17,104.73c-.84,1.17-2.18-4.68-2.18-4.68,0,0,3.81,2.39,2.18,4.68Z"/>
  </g>
  <text class="cls-2" transform="translate(103.61 153.5) rotate(-11.71)"><tspan x="0" y="0">Ex Libris</tspan></text>
</svg>