<?xml version="1.0" encoding="UTF-8"?>
<svg id="Layer_1" data-name="Layer 1" xmlns="http://www.w3.org/2000/svg" viewBox="0 0 380.05 499.57">
  <defs>
    <style>
      .cls-1 {
        letter-spacing: -.14em;
      }

      .cls-2 {
        font-size: 1.71px;
      }

      .cls-2, .cls-3, .cls-4 {
        font-family: Didot, Didot;
      }

      .cls-5, .cls-6, .cls-7, .cls-8, .cls-9, .cls-10, .cls-11, .cls-12, .cls-13, .cls-14, .cls-15, .cls-16 {
        font-family: DidotLTPro-Roman, 'Didot LT Pro';
      }

      .cls-5, .cls-6, .cls-7, .cls-4 {
        font-size: 205.47px;
      }

      .cls-5, .cls-17, .cls-18, .cls-19, .cls-20, .cls-12, .cls-21, .cls-22 {
        fill: #f4d1be;
      }

      .cls-6 {
        fill: #8d4d39;
      }

      .cls-7 {
        fill: #bf7d5d;
      }

      .cls-23 {
        letter-spacing: -.01em;
      }

      .cls-24 {
        letter-spacing: -.04em;
      }

      .cls-25 {
        letter-spacing: -.01em;
      }

      .cls-8, .cls-10 {
        fill: #8e4e39;
        stroke: #8e4e39;
        stroke-miterlimit: 10;
        stroke-width: .17px;
      }

      .cls-8, .cls-10, .cls-12, .cls-13, .cls-14, .cls-15 {
        font-size: 14.55px;
      }

      .cls-26, .cls-27, .cls-28, .cls-29, .cls-30, .cls-31, .cls-13, .cls-32, .cls-33 {
        fill: #c07d5d;
      }

      .cls-34, .cls-19 {
        letter-spacing: -.01em;
      }

      .cls-35 {
        letter-spacing: -.02em;
      }

      .cls-18 {
        letter-spacing: -.02em;
      }

      .cls-27, .cls-36 {
        letter-spacing: -.05em;
      }

      .cls-37 {
        letter-spacing: -.03em;
      }

      .cls-9 {
        letter-spacing: 0em;
      }

      .cls-9, .cls-11, .cls-16 {
        font-size: 34.24px;
      }

      .cls-9, .cls-4, .cls-16 {
        fill: #729a9c;
      }

      .cls-38 {
        letter-spacing: -.08em;
      }

      .cls-39 {
        letter-spacing: -.08em;
      }

      .cls-40 {
        letter-spacing: -.06em;
      }

      .cls-41, .cls-21, .cls-29 {
        letter-spacing: -.06em;
      }

      .cls-42 {
        letter-spacing: -.05em;
      }

      .cls-3 {
        font-size: 3.42px;
      }

      .cls-43, .cls-28 {
        letter-spacing: -.11em;
      }

      .cls-44, .cls-30 {
        letter-spacing: -.11em;
      }

      .cls-45 {
        letter-spacing: 0em;
      }

      .cls-10 {
        letter-spacing: 1em;
      }

      .cls-46 {
        letter-spacing: 0em;
      }

      .cls-20, .cls-47 {
        letter-spacing: -.1em;
      }

      .cls-48 {
        letter-spacing: 0em;
      }

      .cls-11 {
        letter-spacing: .5em;
      }

      .cls-11, .cls-14 {
        fill: #719a9d;
      }

      .cls-12 {
        letter-spacing: .22em;
      }

      .cls-49 {
        letter-spacing: 0em;
      }

      .cls-50 {
        letter-spacing: -.1em;
      }

      .cls-51 {
        letter-spacing: -.1em;
      }

      .cls-52 {
        letter-spacing: -.09em;
      }

      .cls-53, .cls-22 {
        letter-spacing: -.09em;
      }

      .cls-54 {
        letter-spacing: -.09em;
      }

      .cls-55 {
        letter-spacing: .01em;
      }

      .cls-31 {
        letter-spacing: -.04em;
      }

      .cls-56 {
        letter-spacing: 0em;
      }

      .cls-15 {
        fill: #f3d1bd;
      }

      .cls-32, .cls-57 {
        letter-spacing: 0em;
      }

      .cls-58 {
        letter-spacing: 0em;
      }

      .cls-33 {
        letter-spacing: -.02em;
      }

      .cls-59 {
        letter-spacing: -.01em;
      }

      .cls-60 {
        fill: #4c6c58;
        stroke-width: 0px;
      }

      .cls-61 {
        letter-spacing: -.03em;
      }

      .cls-62 {
        letter-spacing: -.04em;
      }
    </style>
  </defs>
  <rect class="cls-60" x="4.7" width="375.34" height="499.57"/>
  <text class="cls-11" transform="translate(11.99 466.22)"><tspan x="0" y="0">&amp;?%;@#</tspan></text>
  <text class="cls-7" transform="translate(0 215.16)"><tspan x="0" y="0">D</tspan></text>
  <text class="cls-5" transform="translate(91.31 291.43)"><tspan x="0" y="0">d</tspan></text>
  <text class="cls-4" transform="translate(184.86 241.98)"><tspan x="0" y="0">o</tspan></text>
  <text class="cls-7" transform="translate(217.94 361.75)"><tspan x="0" y="0">t</tspan></text>
  <text class="cls-9" transform="translate(24.53 64.79)"><tspan x="0" y="0">Linotype</tspan></text>
  <text class="cls-13" transform="translate(284.22 400.64)"><tspan x="0" y="0">ABCDEFGHI</tspan><tspan x="-2.91" y="17.46">JKLMNOPQR</tspan><tspan x="4.34" y="34.93">STUVWXYZ</tspan></text>
  <text class="cls-12" transform="translate(284.38 404.99)"><tspan x="0" y="0">abcdefghi</tspan><tspan x="-5.56" y="17.46">jklmnopqr</tspan><tspan x="9.3" y="34.93">stuvwxyz</tspan></text>
  <text class="cls-14" transform="translate(289.57 50.96)"><tspan x="0" y="0">Roman</tspan></text>
  <text class="cls-8" transform="translate(308 61.56)"><tspan x="0" y="0">MODERN</tspan></text>
  <text class="cls-16" transform="translate(235.47 350.74) rotate(-90)"><tspan x="0" y="0">1784</tspan></text>
  <text class="cls-3" transform="translate(52.82 335.17)"><tspan class="cls-17" x="0" y="0">Building on designs created </tspan><tspan class="cls-19" x="43.89" y="0">b</tspan><tspan class="cls-17" x="45.87" y="0">y his fathe</tspan><tspan class="cls-20" x="61.72" y="0">r</tspan><tspan class="cls-21" x="62.77" y="0">,</tspan><tspan class="cls-17" x="63.53" y="0"> </tspan><tspan class="cls-31" x="64.48" y="0">F</tspan><tspan class="cls-26" x="66.64" y="0">irmin Didot</tspan><tspan class="cls-17" x="84.97" y="0" xml:space="preserve"> had an ambitious idea</tspan><tspan class="cls-21" x="119.91" y="0">.</tspan><tspan class="cls-22" x="120.67" y="0"> </tspan><tspan class="cls-17" x="121.31" y="0">The Didot typeface is </tspan><tspan class="cls-17"><tspan x="0" y="4.11">based on a collection of related </tspan><tspan class="cls-57" x="49.02" y="4.11">f</tspan><tspan x="50.12" y="4.11">onts designed in the </tspan><tspan class="cls-57" x="82.41" y="4.11">y</tspan><tspan x="84.02" y="4.11">ears of 1784 to 1811</tspan><tspan class="cls-41" x="111.68" y="4.11">.</tspan><tspan class="cls-53" x="112.44" y="4.11"> </tspan><tspan x="113.08" y="4.11">The earliest </tspan><tspan class="cls-57" x="132.23" y="4.11">v</tspan><tspan x="133.84" y="4.11">ersions of </tspan></tspan><tspan class="cls-17"><tspan x="0" y="8.22">the typeface </tspan><tspan class="cls-57" x="19.53" y="8.22">w</tspan><tspan x="22.03" y="8.22">ere easily readable and elegant</tspan><tspan class="cls-41" x="69.2" y="8.22">,</tspan><tspan x="69.97" y="8.22" xml:space="preserve"> and thu</tspan><tspan class="cls-61" x="82.9" y="8.22">s</tspan><tspan class="cls-41" x="84.24" y="8.22">,</tspan><tspan x="85.01" y="8.22" xml:space="preserve"> used </tspan><tspan class="cls-57" x="94.14" y="8.22">f</tspan><tspan x="95.25" y="8.22">or bo</tspan><tspan class="cls-34" x="103.43" y="8.22">d</tspan><tspan x="105.41" y="8.22">y cop</tspan><tspan class="cls-43" x="113.59" y="8.22">y</tspan><tspan class="cls-41" x="114.86" y="8.22">. </tspan><tspan x="116.39" y="8.22">Although the elegance </tspan></tspan><tspan class="cls-17"><tspan x="0" y="12.33">remained</tspan><tspan class="cls-41" x="14.58" y="12.33">,</tspan><tspan x="15.35" y="12.33" xml:space="preserve"> Didot</tspan><tspan class="cls-36" x="25.18" y="12.33">’</tspan><tspan x="25.94" y="12.33">s epo</tspan><tspan class="cls-57" x="34" y="12.33">n</tspan><tspan x="36.06" y="12.33">ymous 1784 </tspan><tspan class="cls-25" x="54.2" y="12.33">f</tspan><tspan class="cls-49" x="55.3" y="12.33">ont </tspan><tspan class="cls-25" x="61.39" y="12.33">w</tspan><tspan x="63.89" y="12.33">as primarily used </tspan><tspan class="cls-57" x="91.22" y="12.33">f</tspan><tspan x="92.33" y="12.33">or displ</tspan><tspan class="cls-34" x="104.12" y="12.33">a</tspan><tspan x="105.72" y="12.33">y and semi-displ</tspan><tspan class="cls-34" x="131.02" y="12.33">a</tspan><tspan class="cls-43" x="132.62" y="12.33">y</tspan><tspan class="cls-41" x="133.89" y="12.33">.</tspan><tspan x="134.65" y="12.33"> </tspan></tspan><tspan class="cls-17"><tspan x="0" y="16.44">Characterized </tspan><tspan class="cls-34" x="22.31" y="16.44">b</tspan><tspan x="24.29" y="16.44">y its horizontal</tspan><tspan class="cls-41" x="47.12" y="16.44">,</tspan><tspan x="47.88" y="16.44" xml:space="preserve"> linear </tspan><tspan class="cls-57" x="58.66" y="16.44">f</tspan><tspan x="59.76" y="16.44">orm and more condensed armatur</tspan><tspan class="cls-24" x="112.52" y="16.44">e</tspan><tspan class="cls-41" x="114.1" y="16.44">,</tspan><tspan x="114.86" y="16.44" xml:space="preserve"> it is more rigid than its </tspan></tspan><tspan class="cls-17"><tspan x="0" y="20.55">predecessor</tspan><tspan class="cls-61" x="18.45" y="20.55">s</tspan><tspan class="cls-41" x="19.79" y="20.55">.</tspan><tspan x="20.56" y="20.55" xml:space="preserve"> Other </tspan><tspan class="cls-57" x="31.65" y="20.55">c</tspan><tspan x="33.26" y="20.55">haracteristic aspects are its high contrast bet</tspan><tspan class="cls-57" x="101.66" y="20.55">w</tspan><tspan x="104.17" y="20.55">een thi</tspan><tspan class="cls-57" x="114.88" y="20.55">c</tspan><tspan x="116.5" y="20.55">k and thin</tspan><tspan class="cls-41" x="132.35" y="20.55">,</tspan><tspan x="133.11" y="20.55"> </tspan><tspan class="cls-57" x="134.06" y="20.55">v</tspan><tspan x="135.68" y="20.55">ertical </tspan></tspan><tspan class="cls-17"><tspan x="0" y="24.66">stres</tspan><tspan class="cls-61" x="7.16" y="24.66">s</tspan><tspan class="cls-41" x="8.5" y="24.66">,</tspan><tspan x="9.27" y="24.66" xml:space="preserve"> and unbra</tspan><tspan class="cls-57" x="26.14" y="24.66">ck</tspan><tspan x="29.55" y="24.66">eted serif</tspan><tspan class="cls-62" x="43.82" y="24.66">s</tspan><tspan class="cls-36" x="45.16" y="24.66">.</tspan></tspan></text>
  <text class="cls-3" transform="translate(99.6 360.07)"><tspan class="cls-26"><tspan x="0" y="0">The typeface has been described as creating a</tspan><tspan class="cls-41" x="70.44" y="0"> </tspan><tspan x="71.21" y="0">“dazzling</tspan><tspan class="cls-36" x="85.22" y="0">”</tspan><tspan x="86.55" y="0" xml:space="preserve"> effect when used in small sizes </tspan></tspan><tspan class="cls-26"><tspan x="0" y="4.11">as the thi</tspan><tspan class="cls-57" x="14.2" y="4.11">c</tspan><tspan x="15.81" y="4.11">k lines </tspan><tspan class="cls-57" x="26.85" y="4.11">ov</tspan><tspan x="30.33" y="4.11">erwhelm the thin</tspan><tspan class="cls-41" x="56.96" y="4.11">,</tspan><tspan x="57.72" y="4.11" xml:space="preserve"> hairline stro</tspan><tspan class="cls-57" x="77.5" y="4.11">k</tspan><tspan x="79.31" y="4.11">e</tspan><tspan class="cls-61" x="81.02" y="4.11">s</tspan><tspan class="cls-41" x="82.36" y="4.11">,</tspan><tspan x="83.12" y="4.11" xml:space="preserve"> making them almost invisibl</tspan><tspan class="cls-24" x="127.63" y="4.11">e</tspan><tspan class="cls-41" x="129.21" y="4.11">.</tspan><tspan x="129.97" y="4.11"> </tspan></tspan><tspan class="cls-26"><tspan x="0" y="8.22">These hairline stro</tspan><tspan class="cls-57" x="29.1" y="8.22">k</tspan><tspan x="30.9" y="8.22">es are what ma</tspan><tspan class="cls-57" x="53.73" y="8.22">k</tspan><tspan x="55.53" y="8.22">e printing the </tspan><tspan class="cls-57" x="77.6" y="8.22">f</tspan><tspan x="78.7" y="8.22">ont a dif</tspan><tspan class="cls-46" x="91.58" y="8.22">f</tspan><tspan x="92.75" y="8.22">icult process</tspan><tspan class="cls-41" x="112.15" y="8.22">:</tspan><tspan x="112.92" y="8.22" xml:space="preserve"> high quality </tspan></tspan><tspan class="cls-26"><tspan x="0" y="12.33">printing equipment and paper are a necessity as to not </tspan><tspan class="cls-46" x="84.97" y="12.33">f</tspan><tspan x="86.15" y="12.33">ill the </tspan><tspan class="cls-57" x="96.04" y="12.33">c</tspan><tspan x="97.65" y="12.33">haracters improperl</tspan><tspan class="cls-44" x="128.2" y="12.33">y</tspan><tspan class="cls-42" x="129.47" y="12.33">.</tspan><tspan class="cls-52" x="130.24" y="12.33"> </tspan><tspan x="130.88" y="12.33">The </tspan></tspan><tspan class="cls-26"><tspan x="0" y="16.44">Didot typeface </tspan><tspan class="cls-57" x="23.46" y="16.44">w</tspan><tspan x="25.96" y="16.44">as the standard in </tspan><tspan class="cls-47" x="54.37" y="16.44">F</tspan><tspan x="56.31" y="16.44">ren</tspan><tspan class="cls-57" x="61.51" y="16.44">c</tspan><tspan x="63.12" y="16.44">h printing </tspan><tspan class="cls-25" x="79.67" y="16.44">f</tspan><tspan x="80.78" y="16.44">or </tspan><tspan class="cls-57" x="85.03" y="16.44">ov</tspan><tspan x="88.51" y="16.44">er a centur</tspan><tspan class="cls-44" x="105.18" y="16.44">y</tspan><tspan class="cls-42" x="106.45" y="16.44">.</tspan><tspan x="107.22" y="16.44" xml:space="preserve"> S</tspan><tspan class="cls-57" x="110.46" y="16.44">ev</tspan><tspan x="113.75" y="16.44">eral </tspan><tspan class="cls-57" x="120.46" y="16.44">v</tspan><tspan class="cls-56" x="122.08" y="16.44">ariations </tspan></tspan><tspan class="cls-26" x="0" y="20.55">h</tspan><tspan class="cls-32" x="2.09" y="20.55">av</tspan><tspan class="cls-26" x="5.32" y="20.55">e been made successfull</tspan><tspan class="cls-30" x="42.42" y="20.55">y</tspan><tspan class="cls-27" x="43.69" y="20.55">,</tspan><tspan class="cls-26" x="44.45" y="20.55" xml:space="preserve"> the most notable </tspan><tspan class="cls-32" x="72.23" y="20.55">w</tspan><tspan class="cls-26" x="74.73" y="20.55">ere dr</tspan><tspan class="cls-32" x="83.92" y="20.55">a</tspan><tspan class="cls-26" x="85.54" y="20.55">wn </tspan><tspan class="cls-33" x="91.12" y="20.55">b</tspan><tspan class="cls-26" x="93.1" y="20.55">y </tspan><tspan class="cls-18" x="95.7" y="20.55">J</tspan><tspan class="cls-17" x="97.2" y="20.55">onathan Hoefler </tspan><tspan class="cls-32" x="123.38" y="20.55">f</tspan><tspan class="cls-26" x="124.49" y="20.55">or </tspan><tspan class="cls-26" x="0" y="24.66">Hoefler &amp; Co and</tspan><tspan class="cls-29" x="27.33" y="24.66"> </tspan><tspan class="cls-17" x="28.1" y="24.66">Adrian </tspan><tspan class="cls-20" x="39.76" y="24.66">F</tspan><tspan class="cls-17" x="41.71" y="24.66">rutiger</tspan><tspan class="cls-26" x="52.17" y="24.66"> </tspan><tspan class="cls-32" x="53.12" y="24.66">f</tspan><tspan class="cls-26" x="54.23" y="24.66">or the Linotype </tspan><tspan class="cls-32" x="79.21" y="24.66">f</tspan><tspan class="cls-26" x="80.32" y="24.66">oundr</tspan><tspan class="cls-28" x="89.77" y="24.66">y</tspan><tspan class="cls-29" x="91.04" y="24.66">.</tspan><tspan class="cls-26" x="91.8" y="24.66"> </tspan></text>
  <text class="cls-10" transform="translate(6.16 440.38)"><tspan x="0" y="0">1234567890</tspan></text>
  <text class="cls-2" transform="translate(365.13 346.22) rotate(-90)"><tspan class="cls-26"><tspan x="0" y="0">Análisis y comparación de las tipogra</tspan><tspan class="cls-55" x="28.66" y="0">f</tspan><tspan x="29.24" y="0">ias</tspan><tspan class="cls-40" x="31.3" y="0">:</tspan><tspan x="31.68" y="0" xml:space="preserve"> Didot Hoefler &amp; </tspan><tspan class="cls-50" x="45.19" y="0">F</tspan><tspan x="46.17" y="0">rere-</tspan><tspan class="cls-37" x="49.91" y="0">J</tspan><tspan x="50.66" y="0">ones y Linotype Didot </tspan><tspan class="cls-59" x="68.35" y="0">b</tspan><tspan x="69.34" y="0">y </tspan><tspan class="cls-39" x="70.64" y="0">P</tspan><tspan x="71.62" y="0">ablo Estrada</tspan></tspan><tspan class="cls-17"><tspan x="0" y="2.05">Printing</tspan><tspan class="cls-52" x="6.37" y="2.05"> </tspan><tspan class="cls-1" x="6.69" y="2.05">T</tspan><tspan x="7.62" y="2.05">ypes</tspan><tspan class="cls-42" x="11.04" y="2.05">: </tspan><tspan x="11.8" y="2.05">An Introduction </tspan><tspan class="cls-59" x="24.93" y="2.05">b</tspan><tspan x="25.92" y="2.05">y</tspan><tspan class="cls-40" x="26.74" y="2.05"> </tspan><tspan class="cls-45" x="27.12" y="2.05">Al</tspan><tspan class="cls-58" x="28.9" y="2.05">e</tspan><tspan x="29.74" y="2.05">xander </tspan><tspan class="cls-39" x="35.47" y="2.05">S</tspan><tspan class="cls-42" x="36.49" y="2.05">.</tspan><tspan x="36.87" y="2.05" xml:space="preserve"> L</tspan><tspan class="cls-58" x="38.52" y="2.05">a</tspan><tspan x="39.32" y="2.05">wson and Dwight</tspan><tspan class="cls-40" x="52.83" y="2.05"> </tspan><tspan x="53.21" y="2.05" xml:space="preserve">Agner   </tspan></tspan><tspan class="cls-26"><tspan x="0" y="4.11">Printing</tspan><tspan class="cls-52" x="6.37" y="4.11"> </tspan><tspan class="cls-1" x="6.69" y="4.11">T</tspan><tspan x="7.62" y="4.11">ypes</tspan><tspan class="cls-42" x="11.04" y="4.11">:</tspan><tspan class="cls-52" x="11.42" y="4.11"> </tspan><tspan x="11.74" y="4.11">Their Histor</tspan><tspan class="cls-44" x="21.35" y="4.11">y</tspan><tspan class="cls-42" x="21.98" y="4.11">,</tspan><tspan x="22.36" y="4.11"> </tspan><tspan class="cls-51" x="22.84" y="4.11">F</tspan><tspan x="23.81" y="4.11">orms and Use </tspan><tspan class="cls-59" x="34.88" y="4.11">b</tspan><tspan x="35.87" y="4.11">y Daniel </tspan><tspan class="cls-42" x="42.77" y="4.11">B.</tspan><tspan x="44.2" y="4.11" xml:space="preserve"> Updi</tspan><tspan class="cls-58" x="48.52" y="4.11">k</tspan><tspan x="49.42" y="4.11">e</tspan></tspan><tspan class="cls-17"><tspan x="0" y="6.16">The types of </tspan><tspan class="cls-50" x="10.02" y="6.16">F</tspan><tspan x="10.99" y="6.16">rançois-Ambroise Didot and Pierre-Louis</tspan><tspan class="cls-50" x="43.2" y="6.16" xml:space="preserve"> V</tspan><tspan x="44.57" y="6.16">afflard</tspan><tspan class="cls-42" x="49.58" y="6.16">. </tspan><tspan x="50.34" y="6.16">A further in</tspan><tspan class="cls-23" x="59.57" y="6.16">v</tspan><tspan x="60.37" y="6.16">estigation into the origins of </tspan></tspan><tspan class="cls-17"><tspan x="0" y="8.22">the Didones </tspan><tspan class="cls-59" x="9.93" y="8.22">b</tspan><tspan x="10.92" y="8.22">y Gerard Unger </tspan></tspan><tspan class="cls-26"><tspan class="cls-1" x="0" y="10.27">T</tspan><tspan x=".92" y="10.27">ypefaces</tspan><tspan class="cls-40" x="7.42" y="10.27">:</tspan><tspan class="cls-54" x="7.8" y="10.27"> </tspan><tspan x="8.12" y="10.27">The Complete</tspan><tspan class="cls-52" x="19.16" y="10.27"> </tspan><tspan class="cls-50" x="19.48" y="10.27">W</tspan><tspan x="21.15" y="10.27">orks </tspan><tspan class="cls-35" x="24.92" y="10.27">b</tspan><tspan x="25.91" y="10.27">y</tspan><tspan class="cls-42" x="26.73" y="10.27"> </tspan><tspan x="27.11" y="10.27">Adrian </tspan><tspan class="cls-51" x="32.95" y="10.27">F</tspan><tspan x="33.92" y="10.27">rutiger </tspan></tspan></text>
  <text class="cls-6" transform="translate(58.88 310.25)"><tspan x="0" y="0">i</tspan></text>
  <text class="cls-15" transform="translate(78.91 260.17) rotate(-90)"><tspan class="cls-38" x="0" y="0">P</tspan><tspan class="cls-48" x="8.34" y="0">aris</tspan></text>
</svg>