<?xml version="1.0" encoding="UTF-8"?>
<svg id="Layer_1" data-name="Layer 1" xmlns="http://www.w3.org/2000/svg" viewBox="0 0 188.95 300.71">
  <defs>
    <style>
      .cls-1, .cls-2, .cls-3, .cls-4, .cls-5, .cls-6, .cls-7, .cls-8, .cls-9, .cls-10, .cls-11, .cls-12, .cls-13, .cls-14 {
        stroke: #231f20;
        stroke-linecap: round;
      }

      .cls-1, .cls-2, .cls-3, .cls-5, .cls-6, .cls-12 {
        fill: none;
      }

      .cls-1, .cls-2, .cls-5, .cls-13, .cls-14 {
        stroke-miterlimit: 10;
      }

      .cls-1, .cls-9, .cls-14 {
        stroke-width: .56px;
      }

      .cls-2, .cls-8, .cls-13 {
        stroke-width: .14px;
      }

      .cls-3 {
        stroke-width: .31px;
      }

      .cls-3, .cls-4, .cls-6, .cls-7, .cls-8, .cls-9, .cls-10, .cls-11, .cls-12 {
        stroke-linejoin: round;
      }

      .cls-4, .cls-6 {
        stroke-width: .42px;
      }

      .cls-4, .cls-7, .cls-8, .cls-9, .cls-10, .cls-11, .cls-15, .cls-13, .cls-14 {
        fill: #231f20;
      }

      .cls-5 {
        stroke-dasharray: 0 0 .56 .56;
      }

      .cls-5, .cls-10, .cls-12 {
        stroke-width: .28px;
      }

      .cls-7 {
        stroke-width: .65px;
      }

      .cls-11 {
        stroke-width: .7px;
      }

      .cls-15 {
        stroke-width: 0px;
      }
    </style>
  </defs>
  <path class="cls-10" d="m97.63,130.74c5.18-2.47,13.86-28.58,12.51-34.56-1.12-1.03-1.91-.23-1.87.37.37.79,1.73.33,1.73.33,1.68,2.19-7.14,32.27-12.37,33.86"/>
  <path class="cls-10" d="m94.65,130.74c-5.18-2.47-13.86-28.58-12.51-34.56,1.12-1.03,1.91-.23,1.87.37-.37.79-1.73.33-1.73.33-1.68,2.19,7.14,32.27,12.37,33.86"/>
  <line class="cls-7" x1="88" y1="83.47" x2="91.76" y2="83.87"/>
  <line class="cls-7" x1="92.81" y1="79.59" x2="92.32" y2="83.47"/>
  <line class="cls-7" x1="96.74" y1="84.44" x2="92.82" y2="84"/>
  <line class="cls-7" x1="91.73" y1="88.12" x2="92.19" y2="84.26"/>
  <line class="cls-7" x1="92.63" y1="84.33" x2="93.69" y2="85.59"/>
  <line class="cls-7" x1="92.86" y1="83.56" x2="94.34" y2="82.62"/>
  <line class="cls-7" x1="91.69" y1="84.25" x2="90.38" y2="85.24"/>
  <line class="cls-7" x1="91.78" y1="83.39" x2="90.82" y2="82.28"/>
  <line class="cls-9" x1="95.61" y1="177.66" x2="99.36" y2="177.2"/>
  <line class="cls-9" x1="99.42" y1="172.8" x2="99.81" y2="176.7"/>
  <line class="cls-9" x1="104.34" y1="176.64" x2="100.43" y2="177.09"/>
  <line class="cls-9" x1="100.29" y1="181.35" x2="99.87" y2="177.49"/>
  <line class="cls-9" x1="100.32" y1="177.46" x2="101.63" y2="178.45"/>
  <line class="cls-9" x1="100.36" y1="176.65" x2="101.6" y2="175.41"/>
  <line class="cls-9" x1="99.38" y1="177.59" x2="98.33" y2="178.85"/>
  <line class="cls-9" x1="99.28" y1="176.73" x2="98.09" y2="175.87"/>
  <line class="cls-4" x1="91.15" y1="230.17" x2="94.99" y2="230.62"/>
  <line class="cls-4" x1="96.12" y1="226.24" x2="95.57" y2="230.23"/>
  <line class="cls-4" x1="100.09" y1="231.27" x2="96.08" y2="230.77"/>
  <line class="cls-4" x1="94.91" y1="234.98" x2="95.43" y2="231.03"/>
  <line class="cls-4" x1="95.88" y1="231.11" x2="96.95" y2="232.41"/>
  <line class="cls-4" x1="96.13" y1="230.32" x2="97.65" y2="229.38"/>
  <line class="cls-4" x1="94.92" y1="231.01" x2="93.56" y2="232.01"/>
  <line class="cls-4" x1="95.03" y1="230.13" x2="94.05" y2="228.98"/>
  <line class="cls-4" x1="49.85" y1="287.95" x2="53.61" y2="287.61"/>
  <line class="cls-4" x1="53.8" y1="283.2" x2="54.08" y2="287.11"/>
  <line class="cls-4" x1="58.61" y1="287.19" x2="54.68" y2="287.53"/>
  <line class="cls-4" x1="54.42" y1="291.78" x2="54.11" y2="287.91"/>
  <line class="cls-4" x1="54.56" y1="287.89" x2="55.85" y2="288.92"/>
  <line class="cls-4" x1="54.63" y1="287.08" x2="55.9" y2="285.88"/>
  <line class="cls-4" x1="53.62" y1="287.99" x2="52.53" y2="289.22"/>
  <line class="cls-4" x1="53.54" y1="287.13" x2="52.38" y2="286.23"/>
  <line class="cls-4" x1="129.53" y1="275.65" x2="133.3" y2="275.83"/>
  <line class="cls-4" x1="134.11" y1="271.5" x2="133.84" y2="275.41"/>
  <line class="cls-4" x1="138.31" y1="276.12" x2="134.37" y2="275.91"/>
  <line class="cls-4" x1="133.51" y1="280.08" x2="133.75" y2="276.2"/>
  <line class="cls-4" x1="134.2" y1="276.25" x2="135.33" y2="277.44"/>
  <line class="cls-4" x1="134.39" y1="275.46" x2="135.81" y2="274.45"/>
  <line class="cls-4" x1="133.25" y1="276.22" x2="132" y2="277.28"/>
  <line class="cls-4" x1="133.3" y1="275.35" x2="132.27" y2="274.3"/>
  <line class="cls-11" x1="149.11" y1="295.93" x2="152.88" y2="296.11"/>
  <line class="cls-11" x1="153.69" y1="291.78" x2="153.42" y2="295.69"/>
  <line class="cls-11" x1="157.89" y1="296.4" x2="153.95" y2="296.18"/>
  <line class="cls-11" x1="153.09" y1="300.36" x2="153.33" y2="296.48"/>
  <line class="cls-11" x1="153.78" y1="296.53" x2="154.91" y2="297.72"/>
  <line class="cls-11" x1="153.96" y1="295.74" x2="155.39" y2="294.72"/>
  <line class="cls-11" x1="152.83" y1="296.5" x2="151.58" y2="297.56"/>
  <line class="cls-11" x1="152.88" y1="295.63" x2="151.85" y2="294.58"/>
  <path class="cls-15" d="m188.03,38.42c.09,3.32-2.66,7.22-2.69,7.26-.07.1-.09.22-.07.34.03.12.1.22.2.28,1.8,1.01,2.87,2.75,3.03,4.88.18,2.34-.81,4.92-2.34,6.12-.11.08-.17.21-.16.35,0,.14.07.26.19.34,1.84,1.23,2.03,3.88,1.4,5.96-.55,1.82-1.67,3.1-2.71,3.1h-.06s-.01,0-.02,0c-.17,0-.32.1-.39.25-.07.16-.03.35.09.47.89.89,1.19,2.5.82,4.42-.54,2.84-2.71,6.83-7.04,8.71-.15.07-.25.21-.25.38-.13,6.06-5.45,15.1-13.55,23.05-9.96,9.77-23.34,17.36-37.67,21.37-18.49,5.08-23.65,10.77-25.86,13.2-.4.45-.72.79-.98,1,1.74-7.33,15.97-32.98,16.12-33.25.02-.04.04-.08.04-.12,6.12-29.54,38.11-64.8,71.88-68.08m.39-.46c-33.48,2.99-66.34,37.84-72.69,68.46,0,0-15.43,27.76-16.31,34.1.02,0,.04,0,.05,0,2.19,0,2.76-7.65,27.45-14.44,32.49-9.09,51.28-33.23,51.53-44.81,6.6-2.86,9.09-11.08,6.35-13.82.02,0,.05,0,.07,0,2.95,0,5.25-7.37,1.54-9.83,2.86-2.24,4.11-8.96-.75-11.7,0,0,3.11-4.36,2.74-7.97h0Z"/>
  <path class="cls-3" d="m173.11,94.72c6.84-1.24,12.94,3.86,7.72,11.08,3.24,1.62.72,10.08-2.87,12.45,3.25,2.99.76,11.58-5.34,10.46-.12,3.86-4.73,7.59-7.47,7.59-.62,2.49-6.12,6.52-6.12,6.52-15.95-8.14-48.75-5.89-59.31-2.16"/>
  <path class="cls-15" d="m127.57,137.62c21.25,0,39.14,5.59,42.55,13.29,1.25,2.83.48,5.82-2.3,8.87-.15.16-.15.41,0,.57,1.5,1.62,1.63,5.36.31,8.52-.77,1.84-2.67,4.96-6.74,5.09-.16,0-.3.1-.37.24-.07.14-.05.31.05.44,1.34,1.73,1.49,4.1.4,6.33-1.28,2.62-3.88,4.31-6.6,4.31-.84,0-1.69-.16-2.52-.46-.05-.02-.1-.03-.15-.03-.09,0-.18.03-.26.09-.11.09-.18.23-.16.37.19,2.06-1.04,4.98-3.07,7.28-1.63,1.84-3.49,2.92-5.11,2.96-.12,0-.23.06-.31.15-.08.09-.11.21-.09.33l.58,3.98s.02.09.04.13l5.4,10.7c.06.12.17.2.3.23.02,0,.05,0,.07,0,.11,0,.21-.04.29-.12.34-.32.74-.49,1.15-.49.69,0,1.36.46,1.64,1.12.16.37.3,1.1-.46,1.88-.28.29-.69.45-1.16.45-.67,0-1.33-.31-1.73-.81-.35-.44-.46-1-.32-1.61.02-.1,0-.21-.04-.3l-6.1-10.83c-.05-.09-.14-.16-.24-.2l-3.41-1.07s-.08-.02-.13-.02c-.17,0-.34.11-.4.28-.21.59-3.3,1.5-6.69,1.5-2.54,0-4.32-.54-4.65-1.41-.06-.17-.22-.27-.39-.27-.01,0-.03,0-.04,0-.19.02-.34.16-.38.35-.11.64-.95,1.03-2.21,1.03-4.96,0-14.22-5.7-17.92-20.97-.27-1.47-.38-3.81-.51-6.53-.38-8.25-.96-20.69-6.92-27.41l.82-4.72c8.73-2.12,18.33-3.25,27.77-3.25h0m0-.42c-9.11,0-18.8,1.02-28.14,3.32l-.9,5.2c7.98,8.76,6.35,27.91,7.47,33.89,3.9,16.1,13.62,21.32,18.33,21.32,1.49,0,2.48-.52,2.62-1.38.46,1.22,2.65,1.69,5.05,1.69,3.19,0,6.74-.82,7.09-1.78l3.41,1.07,6.1,10.83c-.42,1.8,1.08,2.93,2.46,2.93.55,0,1.08-.18,1.47-.57,1.61-1.65.16-3.72-1.48-3.72-.49,0-.99.18-1.44.61l-5.4-10.7-.58-3.98c4.36-.12,8.96-6.72,8.59-10.7.91.34,1.81.49,2.67.49,5.8,0,9.9-6.98,6.54-11.32,7.72-.25,9.71-11.08,6.72-14.31,11.45-12.58-11.69-22.87-40.57-22.87h0Z"/>
  <path class="cls-15" d="m133.28,151.45c3,0,5.86,1.14,8.04,3.21,4.67,4.43,4.86,11.84.43,16.51-2.23,2.34-5.23,3.64-8.47,3.64-3,0-5.86-1.14-8.04-3.21-4.67-4.43-4.86-11.84-.43-16.51,2.23-2.34,5.23-3.64,8.47-3.64m0-.28c-3.16,0-6.32,1.25-8.67,3.72-4.55,4.79-4.35,12.36.44,16.9,2.31,2.2,5.27,3.29,8.23,3.29,3.16,0,6.32-1.25,8.67-3.72,4.55-4.79,4.35-12.36-.44-16.9-2.31-2.2-5.27-3.29-8.23-3.29h0Z"/>
  <path class="cls-12" d="m137.11,151.99c8.46,10.1-5.75,23.15-14.67,15.8"/>
  <path class="cls-10" d="m120.43,199.76c4.67.65,2.96-1.91,1.87-4.25,10.98,6.81,14.56.47,13.07-4.14,8.25,4.54,13.88-1.56,12.2-9.3,7.84,3.17,11.86-4.57,8.68-11.3,7.84,1.59,10.55-7,4.29-13.26,14.53-1.74.85-15.3-7.02-16.9,0,0,25.56,5.77,14.61,19.45,3.7,6.14-1.93,14.84-6.72,14.31,3.05,5.45-1.96,12.38-9.21,10.83,1.43,5.08-6.66,11.2-8.59,10.7l.58,3.98,5.4,10.7c2.74-1.74,4.16,1.22,2.86,2.63-.67,1.19-3.37.95-3.65-1.98l-6.3-10.72-3.41-1.07c-2.07,2.04-10.19,2.62-12.14.09-1.32,2.32-6.52.22-6.52.22Z"/>
  <path class="cls-3" d="m137.48,122.24c10.46-.55,10.95,1.11,10.95,1.11-2.72,4.47-10.96,8.13-18.55,10.62-5.42,1.78-10.7,3.41-13.23,3.85"/>
  <path class="cls-3" d="m154.82,112.65c10.25-4.8,26.01-6.86,26.01-6.86"/>
  <path class="cls-3" d="m148.43,123.35c8.78-5.6,29.53-5.11,29.53-5.11"/>
  <path class="cls-3" d="m143.08,128.19c5.16-1.85,26.28-2.17,29.54.51"/>
  <path class="cls-3" d="m126.15,135.12c11.39-2.96,32-2.87,38.99,1.18"/>
  <path class="cls-6" d="m139.6,121.25c11.79-5.73,16.51-14.64,18.25-19.41-9.92.51-47.05,23.14-53.29,33.79"/>
  <path class="cls-6" d="m142.71,107.58c10.12-6.39,11.91-12.62,14.44-17.49-17.13,1.62-44.35,32.17-55.32,48.19"/>
  <path class="cls-6" d="m146.12,94.03c4.21-3.12,11.31-18.14,11.73-23.31-14.68,1.93-37.38,25.08-41.89,35.82"/>
  <path class="cls-6" d="m150.35,73.09c3.87-4.62,5.58-6.36,7.5-14.44-7.79.1-24.6,13.08-24.6,13.08"/>
  <path class="cls-6" d="m185.25,45.93c-7.12.24-25.92,10.03-27.41,12.73"/>
  <path class="cls-6" d="m157.84,70.72c1.1-2.35,16.47-14.86,28.16-13.24"/>
  <path class="cls-6" d="m149.47,92.32c6.36-9.13,28.07-25.26,35.05-24.87"/>
  <path class="cls-6" d="m157.15,90.08c1.11-3.06,15.67-9.02,21.01-8.93"/>
  <path class="cls-6" d="m150.52,103.69c5.29-6.84,19.2-12.13,23.81-11.7"/>
  <path class="cls-6" d="m157.84,101.85c4.67-3.27,11.75-2.92,11.75-2.92"/>
  <path class="cls-6" d="m99.72,140.65c10.44,0,22,4.43,26.1,9.71-5.91,1.26-17.03-2.89-26.4-7.55,17.4,8.05,19.79,9.86,22.22,14.28-8.83,2.1-22.82-11.39-22.82-11.39"/>
  <path class="cls-6" d="m160.87,157.66c-4.76-6.28-34.23-13.51-40.08-11.47"/>
  <path class="cls-6" d="m156.25,170.78c-1-2.67-11.02-7.51-11.02-7.51"/>
  <path class="cls-6" d="m126.15,153.53c-2.82-1.54-13.01-4-13.01-4"/>
  <path class="cls-6" d="m147.56,182.07c-2.82-1.48-8.74-8.35-8.74-8.35"/>
  <path class="cls-6" d="m123.34,156.48c-1.49-1.26-9.37-6.79-9.37-6.79"/>
  <path class="cls-6" d="m135.37,191.38c-2.77-2.1-17.22-22.24-17.19-34.06"/>
  <path class="cls-6" d="m122.3,195.51c-2.93-1.32-13.31-32.64-11.29-40.8"/>
  <path class="cls-15" d="m.73,42.84c16.09.73,33.13,8.59,48.04,22.16,14.25,12.98,24.23,29.13,27.38,44.31,0,.05.03.09.05.13.16.27,15.22,25.99,16.89,33.19-.29-.19-.64-.55-1.15-1.07-2.53-2.62-7.78-8.08-27.59-13.24-19.07-5.06-31.73-14.09-38.98-20.78-8.43-7.77-13.8-16.34-13.99-22.35,0-.17-.11-.32-.27-.38-4.35-1.73-6.58-5.57-7.17-8.34-.41-1.9-.13-3.51.76-4.42.12-.13.15-.31.08-.47-.07-.15-.22-.24-.38-.24-.01,0-.02,0-.03,0-.03,0-.07,0-.1,0-1.04,0-2.17-1.24-2.73-3.02-.59-1.88-.6-4.55,1.34-5.92.11-.08.18-.21.18-.34,0-.14-.06-.26-.17-.34-1.53-1.12-2.54-3.52-2.45-5.85.09-2.22,1.16-4.07,3.01-5.2.1-.06.17-.16.19-.28.02-.12,0-.24-.08-.33-.03-.04-2.88-3.85-2.83-7.21m-.4-.44c-.32,3.67,2.89,7.91,2.89,7.91-4.86,2.97-3.5,9.63-.59,11.75-3.66,2.58-1.3,9.71,1.63,9.71.04,0,.09,0,.13,0-2.71,2.79-.1,10.79,6.56,13.45.37,11.31,19.54,34.58,53.29,43.52,26.56,6.92,26.93,14.5,29.35,14.5.01,0,.03,0,.04,0-.8-6.28-17.07-34-17.07-34C70.14,78.27,35.04,43.71.33,42.4H.33Z"/>
  <path class="cls-3" d="m16.48,98.27c-6.9-1.11-12.91,3.9-7.63,10.8-3.19,1.57-.6,9.65,2.99,11.9-3.19,2.83-.63,10.97,5.41,9.96.15,3.65,4.77,7.23,7.52,7.27.64,2.36,6.18,6.25,6.18,6.25,16.31-7.53,50.95-4.92,62.35-1.09"/>
  <path class="cls-15" d="m61.71,139.97c10.6,0,21.5,1.25,31.54,3.62l.77,4.63c-6.64,6.43-7.53,18.41-8.12,26.36-.19,2.58-.36,4.8-.67,6.15-1.88,6.31-5.05,11.42-9.19,14.78-3.06,2.49-6.65,3.98-9.58,3.98-1.49,0-2.56-.43-2.67-1.07-.03-.18-.18-.32-.36-.35-.02,0-.03,0-.05,0-.17,0-.32.1-.39.25-.29.66-1.71,1.06-3.8,1.06-3.82,0-7.58-1.18-7.8-1.76-.06-.17-.22-.27-.39-.27-.03,0-.06,0-.1.01l-3.45.8c-.11.02-.2.09-.26.18l-6.14,9.47c-.06.1-.08.22-.06.33.12.49.05.91-.22,1.26-.34.44-.97.71-1.65.71-.53,0-1.01-.18-1.32-.48-.52-.51-.69-1.08-.48-1.58.23-.56.86-.95,1.53-.95.46,0,.9.18,1.27.52.08.07.18.11.29.11.02,0,.04,0,.06,0,.13-.02.24-.1.3-.21l5.42-9.39s.04-.09.05-.14l.6-3.6c.02-.12-.01-.24-.08-.33-.07-.09-.18-.15-.3-.16-1.82-.14-3.87-1.41-5.61-3.49-1.76-2.1-2.78-4.55-2.6-6.24.01-.14-.04-.28-.15-.37-.08-.06-.17-.1-.27-.1-.04,0-.08,0-.12.02-.73.21-1.47.32-2.2.32-3.44,0-6.03-2.29-7.07-4.56-.91-1.98-.72-3.95.52-5.39.1-.12.13-.29.07-.44s-.2-.25-.36-.26c-4.52-.3-6.37-3.97-6.95-5.53-1.04-2.78-.83-5.86.49-7.17.16-.16.17-.42,0-.59-2.63-2.76-3.42-5.44-2.34-7.96,3.07-7.17,20.27-12.18,41.83-12.18m0-.42c-28.96,0-50.87,9.23-39.79,20.85-2.93,2.91-.9,12.92,6.73,13.42-3.37,3.92.93,10.64,6.87,10.64.75,0,1.53-.11,2.32-.34-.38,3.63,4.22,9.86,8.6,10.19l-.6,3.6-5.42,9.39c-.48-.44-1.03-.63-1.55-.63-1.58,0-2.9,1.72-1.35,3.25.42.41,1.01.6,1.62.6,1.32,0,2.67-.92,2.27-2.5l6.14-9.47,3.45-.8c.38.99,4.73,2.03,8.19,2.03,2.04,0,3.77-.36,4.19-1.31.15.87,1.33,1.42,3.09,1.42,5.03,0,14.84-4.5,19.18-19.06,1.32-5.64-.02-24.12,8.85-32.48l-.86-5.13c-10.76-2.56-21.77-3.69-31.91-3.69h0Z"/>
  <path class="cls-15" d="m57.02,153.18h0c3.44,0,6.77,1.34,9.12,3.69,2.25,2.24,3.4,5.11,3.25,8.1-.15,2.92-1.53,5.6-3.9,7.53-2.16,1.76-4.96,2.73-7.89,2.73-3.47,0-6.81-1.35-9.16-3.72-2.2-2.21-3.35-5.05-3.22-7.99.12-2.88,1.45-5.53,3.74-7.47,2.18-1.85,5.05-2.87,8.06-2.87m0-.28c-2.97,0-5.92.97-8.24,2.94-4.92,4.17-5.14,11.25-.53,15.88,2.5,2.51,5.94,3.8,9.36,3.8,2.89,0,5.77-.92,8.07-2.79,5.08-4.14,5.39-11.35.67-16.05-2.51-2.5-5.93-3.77-9.32-3.77h0Z"/>
  <path class="cls-12" d="m53.32,153.59c-8.74,9.32,5.75,22.03,15.11,15.42"/>
  <path class="cls-10" d="m70.1,199.03c-4.84.36-3.04-1.92-1.88-4.03-11.35,5.7-14.95-.3-13.39-4.46-8.39,3.77-14.03-2.07-12.32-9.11-7.86,2.59-11.87-4.67-8.71-10.76-7.8,1.2-10.53-6.81-4.32-12.44-14.42-1.98-.9-14.38,7.06-15.77,0,0-25.51,4.99-14.61,17.93-3.61,5.56,1.99,13.73,6.73,13.42-3,4.88,1.98,11.41,9.19,10.3-1.43,4.58,6.65,10.54,8.6,10.19l-.6,3.6-5.42,9.39c-2.71-1.72-4.12.85-2.83,2.19.66,1.11,3.34,1.05,3.62-1.57l6.34-9.36,3.45-.8c2.08,1.97,10.36,2.94,12.38.72,1.33,2.21,6.73.55,6.73.55Z"/>
  <path class="cls-3" d="m53.23,124.72c-10.88-.57-11.46,1.24-11.46,1.24,2.8,4.33,11.33,7.95,19.27,10.44,5.71,1.79,11.35,3.46,14.04,3.92"/>
  <path class="cls-3" d="m35.2,115.58c-10.49-4.62-26.34-6.51-26.34-6.51"/>
  <path class="cls-3" d="m41.77,125.96c-9.01-5.44-29.92-4.98-29.92-4.98"/>
  <path class="cls-3" d="m47.29,130.67c-5.33-1.83-26.79-2.26-30.03.26"/>
  <path class="cls-3" d="m64.96,137.56c-11.94-3-33.14-3.13-40.19.64"/>
  <path class="cls-6" d="m50.94,123.96c-12.22-5.59-17.07-14.26-18.87-18.9,10.27.4,49.5,22.7,56.06,33.29"/>
  <path class="cls-6" d="m47.77,110.56c-10.52-6.2-12.37-12.32-15-17.09,17.92,1.32,46.69,31.56,58.28,47.51"/>
  <path class="cls-6" d="m44.26,97.2c-4.4-3.03-11.79-17.85-12.24-23.03,15.44,1.5,39.58,24.43,44.29,35.18"/>
  <path class="cls-6" d="m39.87,76.34c-4.06-4.55-5.85-6.24-7.87-14.36,8.2-.21,26.08,12.46,26.08,12.46"/>
  <path class="cls-6" d="m3.56,50.31c7.25-.09,26.87,8.99,28.44,11.67"/>
  <path class="cls-6" d="m32.02,74.17c-1.15-2.32-17.17-14.25-29.03-12.17"/>
  <path class="cls-6" d="m40.75,95.56c-6.62-8.95-29.17-24.61-36.23-24"/>
  <path class="cls-6" d="m32.77,93.47c-1.16-3.01-16.04-8.47-21.46-8.26"/>
  <path class="cls-6" d="m39.64,106.79c-5.47-6.67-19.74-11.66-24.41-11.17"/>
  <path class="cls-6" d="m32.08,105.05c-4.8-3.15-12-2.83-12-2.83"/>
  <path class="cls-6" d="m93.3,143.36c-11.35-.17-23.78,3.93-28.18,8.93,6.22,1.35,18.17-2.43,28.45-6.8-18.94,7.49-21.5,9.17-24.13,13.36,9.33,2.26,24.72-10.51,24.72-10.51"/>
  <path class="cls-6" d="m29.14,158.36c4.77-5.76,35.19-12.05,41.35-9.97"/>
  <path class="cls-6" d="m33.79,170.68c1-2.44,11.14-6.64,11.14-6.64"/>
  <path class="cls-6" d="m64.74,155.32c2.98-1.41,13.85-3.55,13.85-3.55"/>
  <path class="cls-6" d="m42.51,181.43c2.85-1.25,8.91-7.41,8.91-7.41"/>
  <path class="cls-6" d="m67.66,158.22c1.58-1.17,10.04-6.31,10.04-6.31"/>
  <path class="cls-6" d="m54.83,190.54c2.85-1.81,18.11-20.11,18.27-31.39"/>
  <path class="cls-6" d="m68.22,195.01c3.06-1.07,14.55-30.25,12.55-38.16"/>
  <circle class="cls-14" cx="96.18" cy="134.1" r="4.06"/>
  <path class="cls-14" d="m94.02,137c-2.08,5.18-1.61,16.34,2.26,26.85,2.96-4.05,5.18-16.96,2.16-26.85h-4.42Z"/>
  <g>
    <circle class="cls-5" cx="96.08" cy="32.23" r="32.09"/>
    <path class="cls-1" d="m96.08,62.33c-16.62,0-30.1-13.48-30.1-30.1S83.45-6.46,111.05,6.11"/>
    <path class="cls-14" d="m111.05,6.11c-19.66,4.65-23.48,17.66-23.48,26.12s1.87,20.62,23.48,26.12c-27.44,12.81-43.46-8.28-45.07-24-1.49-14.48,14.19-41.86,45.07-28.25"/>
    <circle class="cls-2" cx="112.79" cy="32.23" r="2.13"/>
    <g>
      <circle class="cls-2" cx="110.67" cy="38.86" r="2.13"/>
      <path class="cls-13" d="m108.57,38.51c.08.8.99,1.6,1.97,1.65s2.02-.57,2.24-1.51c-.08,2.09-1.67,2.36-2.23,2.33-.48-.02-2.23-.66-1.99-2.47"/>
    </g>
    <g>
      <circle class="cls-2" cx="106.01" cy="43.11" r="2.12"/>
      <path class="cls-13" d="m108.13,43.11h-4.25c.11-1.51,1.35-2.12,2.12-2.12s2.12.78,2.12,2.12"/>
    </g>
    <g>
      <circle class="cls-2" cx="106.01" cy="19.94" r="2.13"/>
      <path class="cls-13" d="m108.14,19.94h-4.25c.11,1.51,1.35,2.13,2.13,2.13s2.12-.78,2.13-2.13"/>
    </g>
    <path class="cls-15" d="m105.97,16.5c5.68,2.88,9.67,8.8,9.97,15.21.31,6.74-4.45,12.94-10,16.27-.16.09-.01.34.14.24,5.63-3.38,10.45-9.67,10.14-16.51s-4.33-12.52-10.11-15.45c-.16-.08-.3.16-.14.24h0Z"/>
    <g>
      <circle class="cls-2" cx="110.45" cy="25.19" r="2.13"/>
      <path class="cls-13" d="m112.54,25.55c-.08-.8-.99-1.6-1.97-1.66s-2.02.56-2.25,1.5c.09-2.09,1.68-2.35,2.23-2.32.48.03,2.23.67,1.98,2.48"/>
    </g>
    <g>
      <line class="cls-8" x1="105.02" y1="24.17" x2="106.21" y2="24.31"/>
      <line class="cls-8" x1="106.56" y1="22.96" x2="106.38" y2="24.19"/>
      <line class="cls-8" x1="107.78" y1="24.51" x2="106.54" y2="24.36"/>
      <line class="cls-8" x1="106.18" y1="25.66" x2="106.34" y2="24.44"/>
      <line class="cls-8" x1="106.48" y1="24.46" x2="106.81" y2="24.86"/>
      <line class="cls-8" x1="106.56" y1="24.21" x2="107.03" y2="23.92"/>
      <line class="cls-8" x1="106.18" y1="24.43" x2="105.76" y2="24.74"/>
      <line class="cls-8" x1="106.22" y1="24.16" x2="105.92" y2="23.8"/>
    </g>
    <g>
      <line class="cls-8" x1="106.55" y1="26.5" x2="107.21" y2="26.43"/>
      <line class="cls-8" x1="107.22" y1="25.66" x2="107.29" y2="26.34"/>
      <line class="cls-8" x1="108.08" y1="26.33" x2="107.39" y2="26.41"/>
      <line class="cls-8" x1="107.37" y1="27.15" x2="107.3" y2="26.48"/>
      <line class="cls-8" x1="107.37" y1="26.47" x2="107.6" y2="26.65"/>
      <line class="cls-8" x1="107.38" y1="26.33" x2="107.6" y2="26.12"/>
      <line class="cls-8" x1="107.21" y1="26.5" x2="107.03" y2="26.71"/>
      <line class="cls-8" x1="107.19" y1="26.34" x2="106.99" y2="26.19"/>
    </g>
    <g>
      <line class="cls-8" x1="108.72" y1="32.79" x2="109.33" y2="33.04"/>
      <line class="cls-8" x1="109.71" y1="32.37" x2="109.44" y2="33"/>
      <line class="cls-8" x1="110.14" y1="33.37" x2="109.5" y2="33.11"/>
      <line class="cls-8" x1="109.12" y1="33.75" x2="109.38" y2="33.12"/>
      <line class="cls-8" x1="109.45" y1="33.16" x2="109.57" y2="33.42"/>
      <line class="cls-8" x1="109.53" y1="33.04" x2="109.82" y2="32.95"/>
      <line class="cls-8" x1="109.3" y1="33.1" x2="109.03" y2="33.2"/>
      <line class="cls-8" x1="109.36" y1="32.96" x2="109.25" y2="32.73"/>
    </g>
    <g>
      <line class="cls-8" x1="102.43" y1="39.96" x2="103.62" y2="39.86"/>
      <line class="cls-8" x1="103.7" y1="38.47" x2="103.77" y2="39.71"/>
      <line class="cls-8" x1="105.21" y1="39.75" x2="103.96" y2="39.84"/>
      <line class="cls-8" x1="103.86" y1="41.19" x2="103.78" y2="39.96"/>
      <line class="cls-8" x1="103.92" y1="39.96" x2="104.33" y2="40.29"/>
      <line class="cls-8" x1="103.95" y1="39.7" x2="104.35" y2="39.32"/>
      <line class="cls-8" x1="103.62" y1="39.99" x2="103.28" y2="40.37"/>
      <line class="cls-8" x1="103.6" y1="39.71" x2="103.24" y2="39.42"/>
    </g>
    <g>
      <line class="cls-8" x1="106.12" y1="39.39" x2="106.77" y2="39.31"/>
      <line class="cls-8" x1="106.79" y1="38.54" x2="106.85" y2="39.22"/>
      <line class="cls-8" x1="107.64" y1="39.21" x2="106.96" y2="39.29"/>
      <line class="cls-8" x1="106.93" y1="40.03" x2="106.86" y2="39.36"/>
      <line class="cls-8" x1="106.94" y1="39.35" x2="107.17" y2="39.53"/>
      <line class="cls-8" x1="106.95" y1="39.21" x2="107.16" y2="39"/>
      <line class="cls-8" x1="106.78" y1="39.38" x2="106.59" y2="39.59"/>
      <line class="cls-8" x1="106.76" y1="39.22" x2="106.55" y2="39.07"/>
    </g>
  </g>
</svg>