<?xml version="1.0" encoding="UTF-8"?>
<svg id="Layer_1" data-name="Layer 1" xmlns="http://www.w3.org/2000/svg" viewBox="0 0 918.53 828.57">
  <defs>
    <style>
      .cls-1 {
        stroke-width: .92px;
      }

      .cls-1, .cls-2, .cls-3, .cls-4, .cls-5, .cls-6, .cls-7, .cls-8, .cls-9, .cls-10, .cls-11, .cls-12, .cls-13, .cls-14 {
        stroke: #231f20;
        stroke-linecap: round;
      }

      .cls-1, .cls-2, .cls-3, .cls-6, .cls-7, .cls-8, .cls-10, .cls-11, .cls-14 {
        stroke-linejoin: round;
      }

      .cls-1, .cls-2, .cls-4, .cls-5, .cls-6, .cls-7, .cls-8, .cls-10, .cls-15 {
        fill: #231f20;
      }

      .cls-2, .cls-3 {
        stroke-width: .6px;
      }

      .cls-3, .cls-9, .cls-11, .cls-12, .cls-13, .cls-14 {
        fill: none;
      }

      .cls-4, .cls-5, .cls-9, .cls-12, .cls-13 {
        stroke-miterlimit: 10;
      }

      .cls-4, .cls-7, .cls-12 {
        stroke-width: .2px;
      }

      .cls-5, .cls-6, .cls-13 {
        stroke-width: .8px;
      }

      .cls-8, .cls-9, .cls-11 {
        stroke-width: .4px;
      }

      .cls-9 {
        stroke-dasharray: 0 0 .8 .8;
      }

      .cls-10 {
        stroke-width: 1px;
      }

      .cls-14 {
        stroke-width: .44px;
      }

      .cls-15 {
        stroke-width: 0px;
      }
    </style>
  </defs>
  <path class="cls-8" d="m453.44,456.36c7.33-3.5,19.61-40.44,17.7-48.89-1.58-1.45-2.71-.33-2.64.53.53,1.12,2.44.46,2.44.46,2.38,3.1-10.1,45.65-17.5,47.9"/>
  <path class="cls-8" d="m449.24,456.36c-7.33-3.5-19.61-40.44-17.7-48.89,1.58-1.45,2.71-.33,2.64.53-.53,1.12-2.44.46-2.44.46-2.38,3.1,10.1,45.65,17.5,47.9"/>
  <line class="cls-1" x1="439.83" y1="389.48" x2="445.13" y2="390.05"/>
  <line class="cls-1" x1="446.62" y1="383.99" x2="445.93" y2="389.49"/>
  <line class="cls-1" x1="452.19" y1="390.85" x2="446.65" y2="390.23"/>
  <line class="cls-1" x1="445.1" y1="396.06" x2="445.74" y2="390.6"/>
  <line class="cls-1" x1="446.37" y1="390.71" x2="447.87" y2="392.48"/>
  <line class="cls-1" x1="446.7" y1="389.61" x2="448.79" y2="388.29"/>
  <line class="cls-1" x1="445.04" y1="390.59" x2="443.19" y2="391.99"/>
  <line class="cls-1" x1="445.17" y1="389.37" x2="443.81" y2="387.8"/>
  <line class="cls-6" x1="450.59" y1="522.74" x2="455.89" y2="522.1"/>
  <line class="cls-6" x1="455.97" y1="515.86" x2="456.54" y2="521.38"/>
  <line class="cls-6" x1="462.94" y1="521.3" x2="457.4" y2="521.94"/>
  <line class="cls-6" x1="457.2" y1="527.97" x2="456.61" y2="522.51"/>
  <line class="cls-6" x1="457.24" y1="522.46" x2="459.11" y2="523.86"/>
  <line class="cls-6" x1="457.31" y1="521.32" x2="459.06" y2="519.56"/>
  <line class="cls-6" x1="455.92" y1="522.65" x2="454.43" y2="524.43"/>
  <line class="cls-6" x1="455.77" y1="521.43" x2="454.09" y2="520.21"/>
  <line class="cls-2" x1="444.28" y1="597.03" x2="449.71" y2="597.67"/>
  <line class="cls-2" x1="451.31" y1="591.48" x2="450.53" y2="597.12"/>
  <line class="cls-2" x1="456.93" y1="598.59" x2="451.26" y2="597.89"/>
  <line class="cls-2" x1="449.6" y1="603.84" x2="450.33" y2="598.26"/>
  <line class="cls-2" x1="450.97" y1="598.37" x2="452.49" y2="600.21"/>
  <line class="cls-2" x1="451.32" y1="597.24" x2="453.48" y2="595.92"/>
  <line class="cls-2" x1="449.61" y1="598.23" x2="447.69" y2="599.64"/>
  <line class="cls-2" x1="449.76" y1="596.98" x2="448.38" y2="595.35"/>
  <line class="cls-2" x1="385.85" y1="678.78" x2="391.16" y2="678.3"/>
  <line class="cls-2" x1="391.43" y1="672.07" x2="391.83" y2="677.6"/>
  <line class="cls-2" x1="398.24" y1="677.7" x2="392.68" y2="678.18"/>
  <line class="cls-2" x1="392.3" y1="684.2" x2="391.87" y2="678.72"/>
  <line class="cls-2" x1="392.51" y1="678.7" x2="394.33" y2="680.15"/>
  <line class="cls-2" x1="392.61" y1="677.56" x2="394.4" y2="675.85"/>
  <line class="cls-2" x1="391.17" y1="678.85" x2="389.63" y2="680.58"/>
  <line class="cls-2" x1="391.07" y1="677.62" x2="389.42" y2="676.35"/>
  <line class="cls-2" x1="498.58" y1="661.38" x2="503.91" y2="661.64"/>
  <line class="cls-2" x1="505.05" y1="655.51" x2="504.67" y2="661.04"/>
  <line class="cls-2" x1="511" y1="662.05" x2="505.43" y2="661.74"/>
  <line class="cls-2" x1="504.21" y1="667.65" x2="504.55" y2="662.16"/>
  <line class="cls-2" x1="505.18" y1="662.23" x2="506.78" y2="663.92"/>
  <line class="cls-2" x1="505.45" y1="661.11" x2="507.46" y2="659.68"/>
  <line class="cls-2" x1="503.85" y1="662.19" x2="502.08" y2="663.69"/>
  <line class="cls-2" x1="503.91" y1="660.96" x2="502.46" y2="659.47"/>
  <line class="cls-10" x1="526.28" y1="690.07" x2="531.61" y2="690.33"/>
  <line class="cls-10" x1="532.75" y1="684.2" x2="532.37" y2="689.73"/>
  <line class="cls-10" x1="538.7" y1="690.74" x2="533.13" y2="690.43"/>
  <line class="cls-10" x1="531.91" y1="696.33" x2="532.25" y2="690.85"/>
  <line class="cls-10" x1="532.89" y1="690.92" x2="534.48" y2="692.61"/>
  <line class="cls-10" x1="533.15" y1="689.8" x2="535.16" y2="688.37"/>
  <line class="cls-10" x1="531.55" y1="690.88" x2="529.78" y2="692.38"/>
  <line class="cls-10" x1="531.61" y1="689.65" x2="530.16" y2="688.16"/>
  <path class="cls-15" d="m581.34,325.75c.13,4.7-3.76,10.21-3.8,10.27-.1.14-.13.31-.1.48.04.17.14.31.29.39,2.54,1.43,4.07,3.89,4.29,6.91.25,3.32-1.14,6.96-3.31,8.65-.15.12-.24.3-.23.49,0,.19.11.37.27.47,2.6,1.74,2.87,5.49,1.98,8.44-.78,2.58-2.36,4.38-3.83,4.38h-.08s-.02,0-.02,0c-.24,0-.45.14-.55.36-.1.23-.05.49.12.66,1.26,1.26,1.68,3.54,1.16,6.25-.77,4.02-3.83,9.66-9.96,12.32-.21.09-.35.3-.36.53-.18,8.57-7.71,21.37-19.17,32.61-14.1,13.82-33.03,24.56-53.3,30.23-26.16,7.19-33.46,15.24-36.58,18.68-.57.63-1.01,1.11-1.39,1.41,2.46-10.37,22.6-46.67,22.81-47.04.03-.05.05-.11.06-.17,4.41-21.29,17.85-44.18,36.86-62.78,19.94-19.51,42.94-31.41,64.84-33.54m.56-.65c-47.37,4.23-93.86,53.53-102.84,96.86,0,0-21.84,39.27-23.07,48.25.03,0,.05,0,.08,0,3.1,0,3.9-10.82,38.84-20.43,45.96-12.86,72.55-47.02,72.91-63.4,9.33-4.05,12.86-15.67,8.98-19.55.04,0,.07,0,.1,0,4.18,0,7.42-10.42,2.18-13.91,4.05-3.17,5.81-12.68-1.06-16.55,0,0,4.4-6.16,3.87-11.27h0Z"/>
  <path class="cls-14" d="m560.24,405.4c9.68-1.76,18.31,5.46,10.92,15.67,4.58,2.29,1.02,14.26-4.07,17.61,4.6,4.23,1.07,16.38-7.56,14.79-.18,5.46-6.69,10.74-10.57,10.74-.88,3.52-8.65,9.22-8.65,9.22-22.57-11.51-68.98-8.33-83.91-3.05"/>
  <path class="cls-15" d="m495.8,466.1c30.06,0,55.38,7.91,60.2,18.8,1.77,4.01.68,8.23-3.25,12.55-.21.23-.21.58,0,.81,2.12,2.29,2.31,7.59.44,12.05-1.09,2.61-3.78,7.01-9.53,7.2-.22,0-.43.14-.52.34-.1.2-.07.44.07.62,1.9,2.45,2.11,5.79.56,8.95-1.82,3.71-5.48,6.1-9.34,6.1-1.19,0-2.39-.22-3.57-.66-.07-.02-.14-.04-.21-.04-.13,0-.26.04-.36.12-.16.13-.25.32-.23.53.27,2.91-1.47,7.05-4.35,10.3-2.3,2.6-4.93,4.13-7.23,4.19-.17,0-.33.08-.44.21s-.16.3-.13.47l.82,5.64c0,.06.03.13.06.18l7.64,15.14c.09.17.25.29.43.32.03,0,.07,0,.1,0,.15,0,.3-.06.41-.16.48-.45,1.04-.7,1.63-.7.97,0,1.92.65,2.32,1.58.22.52.43,1.56-.64,2.66-.4.41-.98.63-1.65.63-.95,0-1.88-.44-2.44-1.14-.5-.63-.65-1.41-.45-2.27.03-.15.01-.3-.06-.43l-8.63-15.32c-.07-.13-.2-.23-.34-.28l-4.82-1.52c-.06-.02-.12-.03-.18-.03-.25,0-.47.15-.56.39-.3.84-4.66,2.13-9.47,2.13-3.6,0-6.12-.77-6.58-2-.09-.23-.31-.39-.56-.39-.02,0-.04,0-.06,0-.27.03-.49.23-.53.49-.15.9-1.35,1.46-3.12,1.46-7.02,0-20.12-8.06-25.35-29.67-.39-2.07-.54-5.39-.72-9.24-.54-11.68-1.36-29.28-9.79-38.78l1.16-6.68c12.36-3,25.93-4.59,39.29-4.59h0m0-.6c-12.89,0-26.59,1.45-39.81,4.7l-1.28,7.35c11.3,12.39,8.98,39.49,10.57,47.94,5.52,22.78,19.27,30.16,25.94,30.16,2.11,0,3.51-.74,3.71-1.96.65,1.73,3.75,2.39,7.14,2.39,4.51,0,9.54-1.16,10.03-2.52l4.82,1.52,8.63,15.32c-.6,2.55,1.52,4.15,3.47,4.15.78,0,1.53-.26,2.07-.81,2.28-2.34.23-5.26-2.1-5.26-.69,0-1.41.26-2.04.86l-7.64-15.14-.82-5.64c6.16-.18,12.68-9.51,12.15-15.14,1.29.48,2.56.69,3.78.69,8.21,0,14.01-9.88,9.26-16.01,10.92-.35,13.74-15.67,9.51-20.25,16.2-17.8-16.54-32.35-57.39-32.35h0Z"/>
  <path class="cls-15" d="m503.88,485.67c4.25,0,8.29,1.61,11.37,4.54,6.6,6.27,6.88,16.75.6,23.35-3.15,3.32-7.4,5.14-11.98,5.14-4.25,0-8.29-1.61-11.37-4.54-6.6-6.27-6.88-16.75-.6-23.35,3.15-3.32,7.4-5.14,11.98-5.14m0-.4c-4.48,0-8.94,1.77-12.27,5.27-6.43,6.77-6.16,17.48.62,23.91,3.27,3.11,7.46,4.65,11.65,4.65,4.48,0,8.94-1.77,12.27-5.27,6.43-6.77,6.16-17.48-.62-23.91-3.27-3.11-7.46-4.65-11.65-4.65h0Z"/>
  <path class="cls-11" d="m509.31,486.42c11.96,14.29-8.14,32.75-20.75,22.35"/>
  <path class="cls-8" d="m485.7,554.01c6.61.92,4.18-2.71,2.65-6.01,15.53,9.64,20.6.66,18.49-5.86,11.67,6.42,19.64-2.2,17.26-13.16,11.09,4.49,16.77-6.47,12.28-15.98,11.09,2.25,14.92-9.91,6.08-18.75,20.56-2.47,1.21-21.65-9.93-23.91,0,0,36.16,8.16,20.67,27.51,5.24,8.68-2.73,20.99-9.51,20.25,4.31,7.71-2.77,17.51-13.03,15.32,2.03,7.18-9.42,15.84-12.15,15.14l.82,5.64,7.64,15.14c3.87-2.46,5.89,1.72,4.04,3.72-.94,1.68-4.77,1.34-5.17-2.81l-8.91-15.17-4.82-1.52c-2.93,2.89-14.42,3.71-17.17.13-1.87,3.29-9.22.32-9.22.32Z"/>
  <path class="cls-14" d="m509.82,444.33c14.79-.77,15.49,1.57,15.49,1.57-3.85,6.32-15.5,11.5-26.25,15.02-7.67,2.51-15.14,4.83-18.72,5.45"/>
  <path class="cls-14" d="m534.36,430.78c14.5-6.79,36.79-9.7,36.79-9.7"/>
  <path class="cls-14" d="m525.31,445.91c12.42-7.92,41.77-7.22,41.77-7.22"/>
  <path class="cls-14" d="m517.74,452.76c7.31-2.62,37.18-3.07,41.79.72"/>
  <path class="cls-14" d="m493.8,462.55c16.11-4.19,45.27-4.06,55.17,1.66"/>
  <path class="cls-3" d="m512.82,442.94c16.69-8.1,23.35-20.72,25.81-27.46-14.03.72-66.57,32.74-75.39,47.8"/>
  <path class="cls-3" d="m517.22,423.59c14.32-9.04,16.85-17.86,20.43-24.75-24.24,2.3-62.75,45.51-78.27,68.18"/>
  <path class="cls-3" d="m522.04,404.42c5.96-4.42,16-25.66,16.59-32.98-20.78,2.73-52.89,35.49-59.27,50.68"/>
  <path class="cls-3" d="m528.03,374.81c5.48-6.54,7.9-8.99,10.61-20.43-11.02.14-34.8,18.51-34.8,18.51"/>
  <path class="cls-3" d="m577.41,336.37c-10.07.34-36.67,14.19-38.77,18.01"/>
  <path class="cls-3" d="m538.64,371.45c1.56-3.32,23.3-21.02,39.84-18.73"/>
  <path class="cls-3" d="m526.79,402.01c9-12.92,39.71-35.73,49.59-35.19"/>
  <path class="cls-3" d="m537.66,398.84c1.58-4.33,22.17-12.76,29.73-12.64"/>
  <path class="cls-3" d="m528.27,418.09c7.48-9.68,27.16-17.16,33.69-16.56"/>
  <path class="cls-3" d="m538.64,415.48c6.61-4.63,16.62-4.13,16.62-4.13"/>
  <path class="cls-3" d="m456.4,470.38c14.77,0,31.12,6.27,36.93,13.73-8.37,1.79-24.09-4.09-37.34-10.68,24.61,11.39,28,13.95,31.43,20.21-12.49,2.97-32.28-16.12-32.28-16.12"/>
  <path class="cls-3" d="m542.92,494.45c-6.73-8.88-48.42-19.11-56.7-16.23"/>
  <path class="cls-3" d="m536.37,513c-1.41-3.78-15.59-10.62-15.59-10.62"/>
  <path class="cls-3" d="m493.8,488.6c-3.98-2.17-18.41-5.66-18.41-5.66"/>
  <path class="cls-3" d="m524.09,528.99c-3.99-2.09-12.36-11.82-12.36-11.82"/>
  <path class="cls-3" d="m489.81,492.78c-2.1-1.78-13.25-9.61-13.25-9.61"/>
  <path class="cls-3" d="m506.83,542.15c-3.91-2.97-24.36-31.47-24.33-48.19"/>
  <path class="cls-3" d="m488.35,548c-4.15-1.86-18.83-46.18-15.98-57.72"/>
  <path class="cls-15" d="m316.37,324.6c23.54,2.38,48.16,15.04,69.4,35.7,20.15,19.61,34.19,43.48,38.52,65.49.01.06.03.12.06.17.21.38,20.48,36.98,22.74,47.22-.39-.29-.85-.78-1.45-1.44-3.15-3.42-10.53-11.42-37.5-18.7-21.07-5.78-40.8-16.73-55.57-30.84-12.04-11.5-20-24.62-20.29-33.44,0-.23-.15-.44-.36-.53-6.22-2.66-9.89-8.5-10.77-13.1-.53-2.76-.1-5.08,1.19-6.36.17-.17.22-.44.13-.66-.1-.22-.31-.36-.55-.36,0,0-.01,0-.02,0h-.08c-1.65,0-3.4-2-4.26-4.86-.85-2.83-.83-6.81,2.05-8.72.16-.11.26-.28.27-.48,0-.19-.08-.38-.23-.49-2.4-1.85-3.95-5.79-3.69-9.38.16-2.24,1.08-5.32,4.5-7.24.15-.08.25-.23.29-.39.04-.17,0-.34-.1-.48-.05-.06-4.34-6.02-4.26-11.11m-.56-.65c-.49,5.49,4.34,12.11,4.34,12.11-7.31,4.11-5.26,14.23-.88,17.61-5.54,3.67-1.9,14.68,2.54,14.68.03,0,.07,0,.1,0-4.06,4.04-.15,16.19,9.77,20.44.55,16.91,28.61,51.75,76.3,64.84,36.03,9.72,36.6,20.44,39.8,20.44.02,0,.05,0,.07,0-1.06-8.89-22.97-48.38-22.97-48.38-8.77-44.59-58.05-96.97-109.07-101.73h0Z"/>
  <path class="cls-14" d="m339.85,408.43c-10.2-1.85-19.17,5.51-11.28,15.95-4.76,2.3-.9,14.43,4.44,17.81-4.73,4.22-.94,16.38,7.98,14.84.23,5.43,7,10.7,11,10.71.93,3.49,8.96,9.14,8.96,9.14,23.29-11.28,71.18-7.93,86.48-2.66"/>
  <path class="cls-15" d="m406.02,469.82c14.05,0,28.32,1.63,41.3,4.72l1.03,6.55c-8.87,9.28-10.07,26.32-10.87,37.63-.26,3.68-.48,6.86-.91,8.8-5.68,20.4-19,28-26.07,28-1.77,0-3.01-.53-3.15-1.35-.04-.26-.26-.46-.52-.49-.02,0-.05,0-.07,0-.24,0-.46.14-.55.37-.47,1.14-2.98,1.85-6.55,1.85-5.2,0-9.35-1.31-9.62-2.02-.09-.24-.32-.39-.56-.39-.06,0-.11,0-.17.02l-4.86,1.41c-.14.04-.27.14-.34.26l-8.71,14.29c-.08.14-.11.3-.07.46.19.75.06,1.41-.37,1.97-.54.69-1.53,1.14-2.52,1.14-.68,0-1.27-.21-1.67-.6-.75-.72-.99-1.54-.67-2.32.36-.89,1.35-1.53,2.35-1.53.6,0,1.17.23,1.66.66.11.1.25.15.4.15.03,0,.07,0,.1,0,.18-.03.33-.14.42-.3l7.71-14.13c.03-.06.05-.12.07-.19l.84-5.3c.03-.17-.02-.34-.13-.47-.11-.13-.27-.21-.44-.22-2.48-.08-5.29-1.7-7.71-4.46-2.62-2.98-4.2-6.71-3.94-9.27.02-.2-.06-.4-.22-.53-.11-.08-.24-.13-.37-.13-.06,0-.13.01-.19.03-1.18.4-2.38.61-3.57.61-4.69,0-8.26-3.12-9.72-6.21-1.38-2.93-1.12-5.89.72-8.14.14-.18.18-.42.08-.62-.09-.21-.3-.34-.52-.35-4.48-.15-8.12-2.89-9.97-7.5-1.7-4.21-1.44-8.97.59-11.07.22-.23.22-.6,0-.83-3.97-4.13-5.15-8.16-3.52-11.99,4.56-10.71,30.34-18.48,61.29-18.48m0-.6c-41.68,0-74.87,14.13-58.2,31.48-4.29,4.42-1.31,19.2,9.79,19.58-4.81,5.87,1.13,15.33,9.47,15.33,1.21,0,2.48-.2,3.77-.64-.54,5.35,6.02,14.19,12.23,14.39l-.84,5.3-7.71,14.13c-.64-.57-1.36-.81-2.05-.81-2.33,0-4.37,2.7-2.09,4.88.54.52,1.3.76,2.09.76,1.95,0,4.06-1.48,3.47-3.85l8.71-14.29,4.86-1.41c.49,1.29,5.61,2.41,10.17,2.41,3.37,0,6.43-.61,7.1-2.21.19,1.15,1.6,1.85,3.74,1.85,6.72,0,20.65-6.92,26.64-28.44,1.78-8.09-.03-34.31,11.83-46.39l-1.14-7.24c-13.89-3.35-28.31-4.83-41.83-4.83h0Z"/>
  <path class="cls-15" d="m398.28,488.65v.4h0c4.66,0,9.15,1.85,12.31,5.08,3.04,3.1,4.63,7.14,4.48,11.37-.15,4.29-2.07,8.26-5.38,11.2-3.15,2.78-7.25,4.31-11.55,4.31-4.68,0-9.03-1.77-12.23-4.99-3.07-3.08-4.69-7.11-4.57-11.36.12-4.28,2.01-8.27,5.3-11.22,3.16-2.83,7.3-4.39,11.63-4.39v-.4m0,0c-4.26,0-8.54,1.49-11.9,4.49-6.96,6.23-7.28,16.6-.75,23.16,3.38,3.39,7.94,5.11,12.51,5.11,4.23,0,8.47-1.46,11.81-4.41,6.98-6.17,7.42-16.53.92-23.15-3.39-3.45-7.98-5.2-12.6-5.2h0Z"/>
  <path class="cls-11" d="m392.78,489.76c-12.32,13.85,8.04,31.73,20.99,21.79"/>
  <path class="cls-8" d="m416.05,554.62c-6.66.84-4.17-2.56-2.58-5.67-15.73,9-20.76.54-18.58-5.6-11.8,6.02-19.81-2.16-17.38-12.57-11.24,4.23-17.01-6.25-12.46-15.35-11.28,2.11-15.25-9.62-6.24-18.17-21.07-2.49-1.3-21.2,10.17-23.38,0,0-37.19,7.88-21.14,26.84-5.29,8.38,2.9,20.27,9.79,19.58-4.35,7.36,2.86,16.73,13.24,14.69-2.05,6.81,9.48,15.03,12.23,14.39l-.84,5.3-7.71,14.13c-3.88-2.31-5.9,1.58-4.05,3.44.94,1.57,4.77,1.27,5.18-2.59l8.99-14.15,4.86-1.41c2.93,2.73,14.47,3.54,17.27.19,1.84,3.09,9.27.33,9.27.33Z"/>
  <path class="cls-14" d="m392.65,447.82c-15.36-.84-16.19,1.8-16.19,1.8,3.98,6.33,16.01,11.54,27.09,15.08,7.9,2.52,15.64,4.85,19.32,5.47"/>
  <path class="cls-14" d="m367.05,434.37c-15.16-6.94-38.49-9.99-38.49-9.99"/>
  <path class="cls-14" d="m376.45,449.62c-12.9-8-43.45-7.42-43.45-7.42"/>
  <path class="cls-14" d="m384.28,456.5c-7.56-2.65-38.54-3.22-43.29.54"/>
  <path class="cls-14" d="m408.97,466.34c-16.62-4.22-46.78-4.22-56.99,1.42"/>
  <path class="cls-3" d="m389.44,446.71c-17.33-8.22-24.29-21-26.87-27.87,14.7.79,69.12,33.33,77.95,48.35"/>
  <path class="cls-3" d="m384.96,427.17c-14.96-9.25-17.62-18.29-21.39-25.38,25.51,2.47,65.25,46.49,80.85,69.11"/>
  <path class="cls-3" d="m379.99,407.6c-6.26-4.57-16.86-26.61-17.5-34.25,22.05,2.94,55.62,36.98,62.06,52.5"/>
  <path class="cls-3" d="m373.74,376.91c-5.81-6.87-8.38-9.46-11.29-21.52,11.76.2,36.97,19.62,36.97,19.62"/>
  <path class="cls-3" d="m320.66,336.09c10.81.41,39.53,15.25,41.79,19.3"/>
  <path class="cls-3" d="m362.48,373.35c-1.66-3.48-25.04-22.1-42.68-19.75"/>
  <path class="cls-3" d="m375,405.1c-9.48-13.36-42.39-37.6-52.9-37.07"/>
  <path class="cls-3" d="m363.57,401.8c-1.67-4.47-23.36-13.11-31.35-13.01"/>
  <path class="cls-3" d="m373.42,421.54c-7.84-9.91-28.55-17.68-35.42-17.08"/>
  <path class="cls-3" d="m362.56,418.84c-6.94-4.76-17.45-4.44-17.45-4.44"/>
  <path class="cls-3" d="m447.42,474.24c-15.23-.06-32.16,6.04-38.22,13.34,8.56,1.78,24.8-3.91,38.58-10.32-25.52,11.07-29.03,13.56-32.64,19.65,12.74,2.94,33.42-15.62,33.42-15.62"/>
  <path class="cls-3" d="m358.32,497.45c6.88-8.63,49.78-18.49,58.26-15.62"/>
  <path class="cls-3" d="m365.04,515.42c1.43-3.63,15.9-10.18,15.9-10.18"/>
  <path class="cls-3" d="m408.66,491.95c4.11-2.11,18.97-5.46,18.97-5.46"/>
  <path class="cls-3" d="m377.5,530.78c4.05-1.98,12.6-11.25,12.6-11.25"/>
  <path class="cls-3" d="m412.69,496.04c2.18-1.73,13.73-9.32,13.73-9.32"/>
  <path class="cls-3" d="m394.89,543.35c3.98-2.8,25.05-29.94,25.27-46.12"/>
  <path class="cls-3" d="m413.47,548.95c4.21-1.74,19.84-44.05,17.13-55.27"/>
  <circle class="cls-5" cx="451.4" cy="461.12" r="5.75"/>
  <path class="cls-5" d="m448.34,465.21c-2.94,7.33-2.27,23.12,3.2,37.98,4.19-5.73,7.33-23.99,3.06-37.98h-6.26Z"/>
  <g>
    <circle class="cls-9" cx="451.73" cy="323.95" r="45.4"/>
    <path class="cls-13" d="m451.73,366.53c-23.52,0-42.59-19.07-42.59-42.59s24.71-54.74,63.76-36.96"/>
    <path class="cls-5" d="m472.91,286.99c-27.81,6.58-33.22,24.98-33.22,36.96s2.65,29.17,33.22,36.96c-38.83,18.13-61.48-11.72-63.76-33.95-2.1-20.48,20.08-59.22,63.76-39.97"/>
    <circle class="cls-12" cx="475.36" cy="323.95" r="3.01"/>
    <g>
      <circle class="cls-12" cx="472.37" cy="333.32" r="3.01"/>
      <path class="cls-4" d="m469.4,332.83c.11,1.14,1.4,2.26,2.79,2.33s2.86-.8,3.17-2.13c-.12,2.95-2.37,3.33-3.15,3.29-.69-.04-3.16-.94-2.81-3.5"/>
    </g>
    <g>
      <circle class="cls-12" cx="465.77" cy="339.33" r="3"/>
      <path class="cls-4" d="m468.78,339.33h-6.01c.16-2.13,1.91-3,3-3s3,1.1,3,3"/>
    </g>
    <g>
      <circle class="cls-12" cx="465.77" cy="306.56" r="3.01"/>
      <path class="cls-4" d="m468.78,306.56h-6.02c.16,2.14,1.91,3.01,3.01,3.01s3-1.1,3.01-3.01"/>
    </g>
    <path class="cls-15" d="m465.72,301.68c6.28,3.16,11.05,8.92,13.08,15.64,2.17,7.16.57,14.31-3.76,20.33-2.49,3.46-5.7,6.38-9.36,8.56-.22.13-.02.48.2.34,6.37-3.8,11.73-10.02,13.66-17.26s-.27-14.63-4.55-20.34c-2.4-3.2-5.5-5.82-9.07-7.61-.23-.11-.43.23-.2.34h0Z"/>
    <g>
      <circle class="cls-12" cx="472.05" cy="313.99" r="3.01"/>
      <path class="cls-4" d="m475.02,314.49c-.11-1.14-1.39-2.27-2.78-2.34s-2.86.79-3.18,2.12c.13-2.95,2.38-3.33,3.16-3.28.69.04,3.16.95,2.8,3.51"/>
    </g>
    <g>
      <line class="cls-7" x1="464.37" y1="312.54" x2="466.05" y2="312.74"/>
      <line class="cls-7" x1="466.55" y1="310.82" x2="466.3" y2="312.56"/>
      <line class="cls-7" x1="468.28" y1="313.02" x2="466.53" y2="312.8"/>
      <line class="cls-7" x1="466.02" y1="314.64" x2="466.24" y2="312.92"/>
      <line class="cls-7" x1="466.44" y1="312.95" x2="466.91" y2="313.52"/>
      <line class="cls-7" x1="466.55" y1="312.6" x2="467.22" y2="312.19"/>
      <line class="cls-7" x1="466.02" y1="312.91" x2="465.43" y2="313.34"/>
      <line class="cls-7" x1="466.07" y1="312.52" x2="465.64" y2="312.02"/>
    </g>
    <g>
      <line class="cls-7" x1="466.54" y1="315.84" x2="467.47" y2="315.73"/>
      <line class="cls-7" x1="467.49" y1="314.64" x2="467.58" y2="315.61"/>
      <line class="cls-7" x1="468.7" y1="315.6" x2="467.73" y2="315.71"/>
      <line class="cls-7" x1="467.69" y1="316.76" x2="467.59" y2="315.81"/>
      <line class="cls-7" x1="467.7" y1="315.8" x2="468.03" y2="316.04"/>
      <line class="cls-7" x1="467.72" y1="315.6" x2="468.02" y2="315.29"/>
      <line class="cls-7" x1="467.47" y1="315.83" x2="467.21" y2="316.14"/>
      <line class="cls-7" x1="467.45" y1="315.62" x2="467.16" y2="315.4"/>
    </g>
    <g>
      <line class="cls-7" x1="469.61" y1="324.74" x2="470.47" y2="325.09"/>
      <line class="cls-7" x1="471.01" y1="324.14" x2="470.63" y2="325.03"/>
      <line class="cls-7" x1="471.62" y1="325.56" x2="470.71" y2="325.19"/>
      <line class="cls-7" x1="470.18" y1="326.09" x2="470.55" y2="325.21"/>
      <line class="cls-7" x1="470.65" y1="325.26" x2="470.81" y2="325.63"/>
      <line class="cls-7" x1="470.75" y1="325.09" x2="471.17" y2="324.97"/>
      <line class="cls-7" x1="470.43" y1="325.17" x2="470.05" y2="325.32"/>
      <line class="cls-7" x1="470.51" y1="324.97" x2="470.36" y2="324.64"/>
    </g>
    <g>
      <line class="cls-7" x1="460.71" y1="334.88" x2="462.4" y2="334.74"/>
      <line class="cls-7" x1="462.5" y1="332.77" x2="462.61" y2="334.53"/>
      <line class="cls-7" x1="464.64" y1="334.58" x2="462.88" y2="334.71"/>
      <line class="cls-7" x1="462.74" y1="336.62" x2="462.62" y2="334.88"/>
      <line class="cls-7" x1="462.82" y1="334.88" x2="463.39" y2="335.34"/>
      <line class="cls-7" x1="462.86" y1="334.52" x2="463.43" y2="333.98"/>
      <line class="cls-7" x1="462.4" y1="334.92" x2="461.9" y2="335.46"/>
      <line class="cls-7" x1="462.37" y1="334.53" x2="461.85" y2="334.12"/>
    </g>
    <g>
      <line class="cls-7" x1="465.93" y1="334.07" x2="466.85" y2="333.96"/>
      <line class="cls-7" x1="466.87" y1="332.87" x2="466.97" y2="333.83"/>
      <line class="cls-7" x1="468.08" y1="333.82" x2="467.12" y2="333.93"/>
      <line class="cls-7" x1="467.08" y1="334.98" x2="466.98" y2="334.03"/>
      <line class="cls-7" x1="467.09" y1="334.02" x2="467.41" y2="334.27"/>
      <line class="cls-7" x1="467.1" y1="333.82" x2="467.41" y2="333.52"/>
      <line class="cls-7" x1="466.86" y1="334.05" x2="466.6" y2="334.36"/>
      <line class="cls-7" x1="466.83" y1="333.84" x2="466.54" y2="333.63"/>
    </g>
  </g>
</svg>